# Blender v2.78 (sub 0) OBJ File: 'Curve.blend'
# www.blender.org
mtllib Corner.mtl
v -10.000000 0.000000 10.000000
v 10.000000 0.000000 10.000000
v -10.000000 0.000000 -10.000000
v 10.000000 0.000000 -10.000000
v -10.000000 0.000000 -2.500000
v -10.000000 0.000000 2.500000
v 10.000000 0.000000 2.500000
v 10.000000 0.000000 -2.500000
v -2.500000 0.000000 10.000000
v 2.500000 0.000000 10.000000
v 2.500000 0.000000 -10.000000
v -2.500000 0.000000 -10.000000
v 2.709428 0.000000 2.897362
v -2.087404 0.000000 2.104111
v 2.928708 0.000000 -3.242615
v -2.765990 0.000000 -2.500000
v 2.500000 0.000000 9.318182
v 2.500000 0.000000 8.636364
v 2.500000 0.000000 7.954546
v 2.500000 0.000000 7.272728
v 2.500000 0.000000 6.590909
v 2.500000 0.000000 5.909091
v 2.349046 0.000000 5.227273
v 2.263004 0.000000 4.545455
v 2.363318 0.000000 3.863636
v 2.583121 0.000000 3.360609
v 9.318182 0.000000 2.500000
v 8.636364 0.000000 2.500000
v 7.954546 0.000000 2.500000
v 7.272728 0.000000 2.500000
v 6.590909 0.000000 2.500000
v 5.909091 0.000000 2.442387
v 5.227273 0.000000 2.359930
v 4.545455 0.000000 2.347448
v 3.949006 0.000000 2.471711
v 3.444678 0.000000 2.739807
v -2.500000 0.000000 9.318182
v -2.500000 0.000000 8.636364
v -2.500000 0.000000 7.954546
v -2.500000 0.000000 7.272728
v -2.500000 0.000000 6.590909
v -2.500000 0.000000 5.909091
v -2.500000 0.000000 5.227273
v -2.500000 0.000000 4.545455
v -2.625068 0.000000 3.863636
v -2.755574 0.000000 3.358413
v -3.385075 0.000000 2.822644
v -3.863636 0.000000 2.665014
v -4.545455 0.000000 2.500000
v -5.227273 0.000000 2.500000
v -5.909091 0.000000 2.500000
v -6.590909 0.000000 2.500000
v -7.272727 0.000000 2.500000
v -7.954545 0.000000 2.500000
v -8.636363 0.000000 2.500000
v -9.318182 0.000000 2.500000
v -3.296111 0.000000 -2.301410
v -3.629004 0.000000 -2.173112
v -4.246604 0.000000 -2.137623
v -5.227273 0.000000 -2.208918
v -5.909091 0.000000 -2.344273
v -6.590909 0.000000 -2.464865
v -7.272727 0.000000 -2.500000
v -7.954545 0.000000 -2.500000
v -8.636363 0.000000 -2.500000
v -9.318182 0.000000 -2.500000
v -2.599706 0.000000 -2.890388
v -2.450773 0.000000 -3.322723
v -2.500000 0.000000 -4.545455
v -2.500000 0.000000 -5.227273
v -2.500000 0.000000 -5.909091
v -2.500000 0.000000 -6.590909
v -2.500000 0.000000 -7.272727
v -2.500000 0.000000 -7.954545
v -2.500000 0.000000 -8.636363
v -2.500000 0.000000 -9.318182
v 2.758145 0.000000 -3.557195
v 2.623171 0.000000 -3.978083
v 2.531069 0.000000 -4.545455
v 2.500000 0.000000 -5.227273
v 2.500000 0.000000 -5.909091
v 2.500000 0.000000 -6.590909
v 2.500000 0.000000 -7.272727
v 2.500000 0.000000 -7.954545
v 2.500000 0.000000 -8.636363
v 2.500000 0.000000 -9.318182
v 9.318182 0.000000 -2.500000
v 8.636364 0.000000 -2.500000
v 7.954546 0.000000 -2.500000
v 7.272728 0.000000 -2.500000
v 6.590909 0.000000 -2.500000
v 5.909091 0.000000 -2.500000
v 5.227273 0.000000 -2.500000
v 4.545455 0.000000 -2.580723
v 3.863636 0.000000 -2.673876
v 3.313565 0.000000 -2.877631
v -2.427736 0.000000 1.811585
v -2.703222 0.000000 1.542867
v -2.834584 0.000000 1.322734
v -2.986774 0.000000 0.940516
v -2.975528 0.000000 0.449014
v -2.964281 0.000000 -0.042488
v -2.953034 0.000000 -0.533991
v -2.941787 0.000000 -1.025493
v -2.930541 0.000000 -1.516995
v -2.919294 0.000000 -2.008498
v 2.187502 0.000000 2.898195
v 1.665576 0.000000 2.899028
v 1.143649 0.000000 2.899861
v 0.621723 0.000000 2.900694
v 0.099796 0.000000 2.901527
v -0.296405 0.000000 2.857532
v -0.633478 0.000000 2.731785
v -0.985776 0.000000 2.556255
v -1.279159 0.000000 2.454659
v -1.684107 0.000000 2.265146
vn 0.0000 1.0000 0.0000
usemtl PathBrown
s off
f 88//1 89//1 28//1
f 102//1 115//1 114//1
f 85//1 75//1 84//1
f 15//1 13//1 96//1
f 13//1 35//1 96//1
f 13//1 36//1 35//1
f 96//1 35//1 95//1
f 95//1 35//1 34//1
f 33//1 32//1 92//1
f 95//1 34//1 94//1
f 94//1 34//1 93//1
f 32//1 91//1 92//1
f 29//1 89//1 90//1
f 31//1 91//1 32//1
f 93//1 34//1 33//1
f 90//1 30//1 29//1
f 92//1 93//1 33//1
f 30//1 91//1 31//1
f 27//1 7//1 8//1
f 87//1 88//1 27//1
f 27//1 8//1 87//1
f 30//1 90//1 91//1
f 88//1 28//1 27//1
f 29//1 28//1 89//1
f 97//1 14//1 116//1
f 116//1 115//1 102//1
f 114//1 113//1 111//1
f 112//1 111//1 113//1
f 109//1 108//1 15//1
f 111//1 110//1 114//1
f 97//1 116//1 101//1
f 114//1 110//1 103//1
f 108//1 107//1 15//1
f 13//1 15//1 107//1
f 16//1 106//1 105//1
f 104//1 103//1 15//1
f 16//1 105//1 15//1
f 109//1 15//1 110//1
f 116//1 102//1 101//1
f 99//1 98//1 97//1
f 101//1 100//1 99//1
f 103//1 102//1 114//1
f 15//1 105//1 104//1
f 99//1 97//1 101//1
f 103//1 110//1 15//1
f 67//1 16//1 15//1
f 67//1 15//1 77//1
f 70//1 69//1 80//1
f 68//1 67//1 77//1
f 68//1 77//1 78//1
f 71//1 70//1 80//1
f 74//1 73//1 83//1
f 72//1 82//1 83//1
f 68//1 78//1 79//1
f 80//1 81//1 71//1
f 68//1 79//1 69//1
f 73//1 72//1 83//1
f 12//1 76//1 86//1
f 75//1 74//1 84//1
f 79//1 80//1 69//1
f 83//1 84//1 74//1
f 81//1 82//1 71//1
f 76//1 75//1 85//1
f 86//1 11//1 12//1
f 82//1 72//1 71//1
f 85//1 86//1 76//1
usemtl GrassGreen
f 88//1 4//1 89//1
f 33//1 23//1 22//1
f 104//1 105//1 58//1
f 44//1 49//1 50//1
f 59//1 68//1 69//1
f 24//1 25//1 109//1
f 77//1 15//1 95//1
f 96//1 95//1 15//1
f 94//1 93//1 80//1
f 91//1 90//1 4//1
f 93//1 92//1 81//1
f 77//1 95//1 78//1
f 79//1 78//1 94//1
f 81//1 80//1 93//1
f 84//1 83//1 4//1
f 82//1 81//1 92//1
f 78//1 95//1 94//1
f 92//1 91//1 82//1
f 88//1 87//1 4//1
f 91//1 4//1 82//1
f 80//1 79//1 94//1
f 85//1 84//1 4//1
f 4//1 11//1 86//1
f 83//1 82//1 4//1
f 4//1 86//1 85//1
f 87//1 8//1 4//1
f 90//1 89//1 4//1
f 17//1 10//1 2//1
f 2//1 7//1 27//1
f 28//1 29//1 2//1
f 2//1 27//1 28//1
f 18//1 17//1 2//1
f 21//1 20//1 2//1
f 19//1 18//1 2//1
f 2//1 29//1 30//1
f 2//1 30//1 31//1
f 20//1 19//1 2//1
f 24//1 23//1 36//1
f 22//1 21//1 31//1
f 2//1 31//1 21//1
f 32//1 33//1 22//1
f 34//1 35//1 36//1
f 36//1 13//1 26//1
f 26//1 25//1 36//1
f 23//1 33//1 34//1
f 31//1 32//1 22//1
f 34//1 36//1 23//1
f 25//1 24//1 36//1
f 5//1 6//1 56//1
f 55//1 65//1 66//1
f 5//1 56//1 66//1
f 64//1 54//1 53//1
f 66//1 56//1 55//1
f 53//1 52//1 62//1
f 55//1 54//1 65//1
f 62//1 63//1 53//1
f 65//1 54//1 64//1
f 51//1 50//1 60//1
f 64//1 53//1 63//1
f 61//1 52//1 51//1
f 60//1 61//1 51//1
f 52//1 61//1 62//1
f 48//1 47//1 98//1
f 50//1 102//1 60//1
f 50//1 49//1 101//1
f 47//1 14//1 97//1
f 47//1 97//1 98//1
f 59//1 60//1 102//1
f 16//1 57//1 106//1
f 58//1 59//1 104//1
f 48//1 98//1 99//1
f 100//1 101//1 49//1
f 48//1 99//1 100//1
f 106//1 57//1 58//1
f 103//1 104//1 59//1
f 105//1 106//1 58//1
f 49//1 48//1 100//1
f 102//1 103//1 59//1
f 50//1 101//1 102//1
f 6//1 1//1 56//1
f 37//1 38//1 1//1
f 1//1 9//1 37//1
f 54//1 55//1 1//1
f 56//1 1//1 55//1
f 39//1 40//1 1//1
f 1//1 38//1 39//1
f 52//1 53//1 1//1
f 54//1 1//1 53//1
f 41//1 42//1 51//1
f 1//1 40//1 41//1
f 50//1 51//1 42//1
f 52//1 1//1 41//1
f 42//1 43//1 50//1
f 44//1 45//1 48//1
f 46//1 14//1 47//1
f 47//1 48//1 45//1
f 51//1 52//1 41//1
f 48//1 49//1 44//1
f 45//1 46//1 47//1
f 50//1 43//1 44//1
f 3//1 5//1 66//1
f 65//1 64//1 3//1
f 3//1 66//1 65//1
f 76//1 12//1 3//1
f 73//1 74//1 3//1
f 75//1 76//1 3//1
f 3//1 64//1 63//1
f 3//1 63//1 72//1
f 74//1 75//1 3//1
f 70//1 62//1 61//1
f 72//1 73//1 3//1
f 63//1 62//1 72//1
f 61//1 60//1 69//1
f 59//1 58//1 57//1
f 57//1 16//1 67//1
f 67//1 68//1 57//1
f 69//1 70//1 61//1
f 72//1 62//1 71//1
f 60//1 59//1 69//1
f 57//1 68//1 59//1
f 71//1 62//1 70//1
f 116//1 14//1 46//1
f 116//1 46//1 115//1
f 113//1 114//1 45//1
f 115//1 46//1 45//1
f 44//1 112//1 113//1
f 115//1 45//1 114//1
f 113//1 45//1 44//1
f 23//1 111//1 43//1
f 44//1 43//1 112//1
f 112//1 43//1 111//1
f 23//1 43//1 42//1
f 38//1 37//1 18//1
f 22//1 23//1 42//1
f 39//1 38//1 18//1
f 9//1 10//1 17//1
f 18//1 19//1 39//1
f 9//1 17//1 37//1
f 22//1 42//1 41//1
f 109//1 110//1 24//1
f 40//1 21//1 41//1
f 17//1 18//1 37//1
f 21//1 22//1 41//1
f 19//1 20//1 39//1
f 110//1 111//1 24//1
f 13//1 107//1 26//1
f 108//1 109//1 25//1
f 20//1 40//1 39//1
f 21//1 40//1 20//1
f 107//1 108//1 25//1
f 25//1 26//1 107//1
f 23//1 24//1 111//1
