# Blender v2.78 (sub 0) OBJ File: 'emptyTile.blend'
# www.blender.org
mtllib emptyTile.mtl
v -10.000000 0.000000 10.000000
v 10.000000 0.000000 10.000000
v -10.000000 0.000000 -10.000000
v 10.000000 0.000000 -10.000000
v -9.000000 0.000000 10.000000
v -9.000000 0.000000 -10.000000
v 9.000000 0.000000 10.000000
v 9.000000 0.000000 -10.000000
v -10.000000 0.000000 -9.000000
v -10.000000 0.000000 9.000000
v 10.000000 0.000000 9.000000
v 10.000000 0.000000 -9.000000
v -9.000000 0.000000 9.000000
v -9.000000 0.000000 -9.000000
v 9.000000 0.000000 9.000000
v 9.000000 0.000000 -9.000000
v -9.700000 0.500000 9.300000
v -9.700000 0.500000 8.700000
v -10.000000 0.200000 9.000000
v -9.700000 0.500000 9.700000
v -10.000000 0.200000 10.000000
v 9.300000 0.500000 9.700000
v 8.700000 0.500000 9.700000
v 9.000000 0.200000 10.000000
v 10.000000 0.200000 10.000000
v 9.700000 0.500000 9.700000
v 9.700000 0.500000 -9.300000
v 9.700000 0.500000 -8.700000
v 10.000000 0.200000 -9.000000
v 9.700000 0.500000 -9.700000
v 10.000000 0.200000 -10.000000
v -9.300000 0.500000 -9.700000
v -8.700000 0.500000 -9.700000
v -9.000000 0.200000 -10.000000
v -10.000000 0.200000 -10.000000
v -9.700000 0.500000 -9.700000
v -9.300000 0.500000 9.700000
v -9.000000 0.200000 10.000000
v -8.700000 0.500000 9.700000
v 8.700000 0.500000 -9.700000
v 9.300000 0.500000 -9.700000
v 9.000000 0.200000 -10.000000
v -9.300000 0.500000 -9.300000
v -9.300000 0.500000 -8.700000
v -9.000000 0.200000 -9.000000
v -8.700000 0.500000 -9.300000
v 9.300000 0.500000 -9.300000
v 8.700000 0.500000 -9.300000
v 9.000000 0.200000 -9.000000
v 9.300000 0.500000 -8.700000
v -10.000000 0.200000 -9.000000
v -9.700000 0.500000 -8.700000
v -9.700000 0.500000 -9.300000
v 10.000000 0.200000 9.000000
v 9.700000 0.500000 8.700000
v 9.700000 0.500000 9.300000
v -9.300000 0.500000 9.300000
v -8.700000 0.500000 9.300000
v -9.000000 0.200000 9.000000
v -9.300000 0.500000 8.700000
v 9.300000 0.500000 9.300000
v 9.300000 0.500000 8.700000
v 9.000000 0.200000 9.000000
v 8.700000 0.500000 9.300000
vn 0.0000 1.0000 0.0000
vn 0.0000 0.0000 1.0000
vn 0.0000 0.0000 -1.0000
vn -1.0000 0.0000 0.0000
vn 1.0000 0.0000 0.0000
vn -0.7071 0.7071 0.0000
vn 0.0000 0.7071 0.7071
vn 0.7071 0.7071 0.0000
vn 0.0000 0.7071 -0.7071
usemtl BlackHole
s off
f 15//1 14//1 13//1
f 15//1 16//1 14//1
usemtl RedBarrier
f 16//2 45//2 14//2
f 13//3 63//3 15//3
f 8//3 31//3 4//3
f 26//1 61//1 22//1
f 43//1 36//1 53//1
f 15//4 49//4 16//4
f 37//1 17//1 20//1
f 23//1 58//1 39//1
f 12//5 54//5 11//5
f 6//3 42//3 8//3
f 3//3 34//3 6//3
f 11//5 25//5 2//5
f 10//4 51//4 9//4
f 5//2 21//2 1//2
f 7//2 38//2 5//2
f 4//5 29//5 12//5
f 9//4 35//4 3//4
f 60//1 52//1 18//1
f 2//2 24//2 7//2
f 14//5 59//5 13//5
f 27//1 41//1 47//1
f 48//1 33//1 46//1
f 55//1 50//1 62//1
f 17//6 18//6 19//6
f 22//7 23//7 24//7
f 27//8 28//8 29//8
f 32//9 33//9 34//9
f 37//7 38//7 39//7
f 40//9 41//9 42//9
f 43//7 45//7 46//7
f 47//6 49//6 50//6
f 51//6 52//6 53//6
f 54//8 55//8 56//8
f 57//8 59//8 60//8
f 61//9 63//9 64//9
f 21//6 17//6 19//6
f 25//7 22//7 24//7
f 31//8 27//8 29//8
f 35//9 32//9 34//9
f 38//7 20//7 21//7
f 42//9 33//9 40//9
f 33//1 43//1 46//1
f 38//7 23//7 39//7
f 42//9 30//9 31//9
f 41//1 48//1 47//1
f 51//6 36//6 35//6
f 19//6 52//6 51//6
f 54//8 26//8 25//8
f 29//8 55//8 54//8
f 58//1 37//1 39//1
f 45//8 60//8 59//8
f 61//1 23//1 22//1
f 50//6 63//6 62//6
f 63//9 58//9 64//9
f 48//7 45//7 49//7
f 18//1 57//1 60//1
f 53//1 44//1 43//1
f 62//1 56//1 55//1
f 47//1 28//1 27//1
f 1//4 19//4 10//4
f 16//2 49//2 45//2
f 13//3 59//3 63//3
f 8//3 42//3 31//3
f 26//1 56//1 61//1
f 43//1 32//1 36//1
f 15//4 63//4 49//4
f 37//1 57//1 17//1
f 23//1 64//1 58//1
f 12//5 29//5 54//5
f 6//3 34//3 42//3
f 3//3 35//3 34//3
f 11//5 54//5 25//5
f 10//4 19//4 51//4
f 5//2 38//2 21//2
f 7//2 24//2 38//2
f 4//5 31//5 29//5
f 9//4 51//4 35//4
f 60//1 44//1 52//1
f 2//2 25//2 24//2
f 14//5 45//5 59//5
f 27//1 30//1 41//1
f 48//1 40//1 33//1
f 55//1 28//1 50//1
f 43//8 44//8 45//8
f 47//7 48//7 49//7
f 57//9 58//9 59//9
f 61//6 62//6 63//6
f 21//6 20//6 17//6
f 25//7 26//7 22//7
f 31//8 30//8 27//8
f 35//9 36//9 32//9
f 38//7 37//7 20//7
f 42//9 34//9 33//9
f 33//1 32//1 43//1
f 38//7 24//7 23//7
f 42//9 41//9 30//9
f 41//1 40//1 48//1
f 51//6 53//6 36//6
f 19//6 18//6 52//6
f 54//8 56//8 26//8
f 29//8 28//8 55//8
f 58//1 57//1 37//1
f 45//8 44//8 60//8
f 61//1 64//1 23//1
f 50//6 49//6 63//6
f 63//9 59//9 58//9
f 48//7 46//7 45//7
f 18//1 17//1 57//1
f 53//1 52//1 44//1
f 62//1 61//1 56//1
f 47//1 50//1 28//1
f 1//4 21//4 19//4
