# Blender v2.78 (sub 0) OBJ File: 'TileSix.blend'
# www.blender.org
mtllib TileSix.mtl
v 0.794326 0.000000 -6.982975
v -0.056750 0.000000 -6.372291
v -0.839285 0.000000 -5.722511
v -1.552236 0.000000 -5.037036
v -2.194563 0.000000 -4.319270
v -2.765222 0.000000 -3.572614
v -3.263174 0.000000 -2.800473
v -3.687375 0.000000 -2.006248
v -4.036785 0.000000 -1.193343
v -4.310361 0.000000 -0.365160
v -4.507062 0.000000 0.474898
v -4.625847 0.000000 1.323428
v -4.665674 0.000000 2.177026
v -4.629134 0.000000 2.877257
v -4.521692 0.000000 3.535544
v -4.346611 0.000000 4.148276
v -4.107155 0.000000 4.711841
v -3.806588 0.000000 5.222628
v -3.448174 0.000000 5.677026
v -3.035176 0.000000 6.071424
v -2.570859 0.000000 6.402211
v -2.058486 0.000000 6.665776
v -1.501322 0.000000 6.858508
v -0.902630 0.000000 6.976795
v -0.265674 0.000000 7.017026
v 0.271375 0.000000 6.979144
v 0.789049 0.000000 6.868970
v 1.282139 0.000000 6.691714
v 1.745438 0.000000 6.452581
v 2.173737 0.000000 6.156783
v 2.561827 0.000000 5.809526
v 2.904500 0.000000 5.416019
v 3.196549 0.000000 4.981470
v 3.432765 0.000000 4.511088
v 3.607938 0.000000 4.010081
v 3.716862 0.000000 3.483658
v 3.754327 0.000000 2.937026
v 3.720797 0.000000 2.383959
v 3.622753 0.000000 1.857489
v 3.464015 0.000000 1.361713
v 3.248401 0.000000 0.900729
v 2.979732 0.000000 0.478634
v 2.661827 0.000000 0.099525
v 2.298505 0.000000 -0.232500
v 1.893586 0.000000 -0.513345
v 1.450889 0.000000 -0.738912
v 0.974234 0.000000 -0.905104
v 0.467440 0.000000 -1.007823
v -0.065673 0.000000 -1.042974
v -0.286530 0.000000 -1.037303
v -0.499192 0.000000 -1.020937
v -0.703799 0.000000 -0.994850
v -0.900489 0.000000 -0.960011
v -1.089401 0.000000 -0.917396
v -1.270674 0.000000 -0.867974
v -1.444447 0.000000 -0.812720
v -1.610859 0.000000 -0.752604
v -1.770049 0.000000 -0.688600
v -1.922156 0.000000 -0.621678
v -2.067318 0.000000 -0.552813
v -2.205674 0.000000 -0.482975
v -2.042456 0.000000 -0.959097
v -1.834933 0.000000 -1.435289
v -1.586299 0.000000 -1.908287
v -1.299748 0.000000 -2.374826
v -0.978475 0.000000 -2.831643
v -0.625674 0.000000 -3.275474
v -0.244539 0.000000 -3.703055
v 0.161734 0.000000 -4.111123
v 0.589952 0.000000 -4.496412
v 1.036920 0.000000 -4.855660
v 1.499443 0.000000 -5.185603
v 1.974327 0.000000 -5.482975
v -2.625674 0.000000 1.537026
v -2.418555 0.000000 1.405221
v -2.225396 0.000000 1.289248
v -2.043486 0.000000 1.188276
v -1.870118 0.000000 1.101470
v -1.702584 0.000000 1.027998
v -1.538174 0.000000 0.967026
v -1.374181 0.000000 0.917721
v -1.207896 0.000000 0.879249
v -1.036612 0.000000 0.850776
v -0.857619 0.000000 0.831470
v -0.668209 0.000000 0.820498
v -0.465674 0.000000 0.817026
v -0.148116 0.000000 0.835428
v 0.153122 0.000000 0.889248
v 0.435889 0.000000 0.976401
v 0.698030 0.000000 1.094804
v 0.937394 0.000000 1.242373
v 1.151826 0.000000 1.417027
v 1.339176 0.000000 1.616679
v 1.497290 0.000000 1.839249
v 1.624014 0.000000 2.082652
v 1.717197 0.000000 2.344804
v 1.774686 0.000000 2.623624
v 1.794326 0.000000 2.917026
v 1.776259 0.000000 3.242593
v 1.723123 0.000000 3.548230
v 1.636514 0.000000 3.832339
v 1.518030 0.000000 4.093322
v 1.369268 0.000000 4.329584
v 1.191826 0.000000 4.539526
v 0.987300 0.000000 4.721551
v 0.757289 0.000000 4.874063
v 0.503388 0.000000 4.995463
v 0.227196 0.000000 5.084156
v -0.069690 0.000000 5.138542
v -0.385674 0.000000 5.157026
v -0.737977 0.000000 5.128577
v -1.080766 0.000000 5.044434
v -1.407861 0.000000 4.906401
v -1.713081 0.000000 4.716285
v -1.990245 0.000000 4.475892
v -2.233173 0.000000 4.187026
v -2.435685 0.000000 3.851493
v -2.591599 0.000000 3.471100
v -2.694736 0.000000 3.047651
v -2.738914 0.000000 2.582952
v -2.717953 0.000000 2.078808
v 0.794326 0.500000 -6.982975
v -0.056750 0.500000 -6.372291
v -0.839285 0.500000 -5.722511
v -1.552236 0.500000 -5.037036
v -2.194563 0.500000 -4.319270
v -2.765222 0.500000 -3.572614
v -3.263174 0.500000 -2.800473
v -3.687375 0.500000 -2.006248
v -4.036785 0.500000 -1.193343
v -4.310361 0.500000 -0.365160
v -4.507062 0.500000 0.474898
v -4.625847 0.500000 1.323428
v -4.665674 0.500000 2.177026
v -4.629134 0.500000 2.877257
v -4.521692 0.500000 3.535544
v -4.346611 0.500000 4.148276
v -4.107155 0.500000 4.711841
v -3.806588 0.500000 5.222628
v -3.448174 0.500000 5.677026
v -3.035176 0.500000 6.071424
v -2.570859 0.500000 6.402211
v -2.058486 0.500000 6.665776
v -1.501322 0.500000 6.858508
v -0.902630 0.500000 6.976795
v -0.265674 0.500000 7.017026
v 0.271375 0.500000 6.979144
v 0.789049 0.500000 6.868970
v 1.282139 0.500000 6.691714
v 1.745438 0.500000 6.452581
v 2.173737 0.500000 6.156783
v 2.561827 0.500000 5.809526
v 2.904500 0.500000 5.416019
v 3.196549 0.500000 4.981470
v 3.432765 0.500000 4.511088
v 3.607938 0.500000 4.010081
v 3.716862 0.500000 3.483658
v 3.754327 0.500000 2.937026
v 3.720797 0.500000 2.383959
v 3.622753 0.500000 1.857489
v 3.464015 0.500000 1.361713
v 3.248401 0.500000 0.900729
v 2.979732 0.500000 0.478634
v 2.661827 0.500000 0.099525
v 2.298505 0.500000 -0.232500
v 1.893586 0.500000 -0.513345
v 1.450889 0.500000 -0.738912
v 0.974234 0.500000 -0.905104
v 0.467440 0.500000 -1.007823
v -0.065673 0.500000 -1.042974
v -0.286530 0.500000 -1.037303
v -0.499192 0.500000 -1.020937
v -0.703799 0.500000 -0.994850
v -0.900489 0.500000 -0.960011
v -1.089401 0.500000 -0.917396
v -1.270674 0.500000 -0.867974
v -1.444447 0.500000 -0.812720
v -1.610859 0.500000 -0.752604
v -1.770049 0.500000 -0.688600
v -1.922156 0.500000 -0.621678
v -2.067318 0.500000 -0.552813
v -2.205674 0.500000 -0.482975
v -2.042456 0.500000 -0.959097
v -1.834933 0.500000 -1.435289
v -1.586299 0.500000 -1.908287
v -1.299748 0.500000 -2.374826
v -0.978475 0.500000 -2.831643
v -0.625674 0.500000 -3.275474
v -0.244539 0.500000 -3.703055
v 0.161734 0.500000 -4.111123
v 0.589952 0.500000 -4.496412
v 1.036920 0.500000 -4.855660
v 1.499443 0.500000 -5.185603
v 1.974327 0.500000 -5.482975
v -2.625674 0.500000 1.537026
v -2.418555 0.500000 1.405221
v -2.225396 0.500000 1.289248
v -2.043486 0.500000 1.188276
v -1.870118 0.500000 1.101470
v -1.702584 0.500000 1.027998
v -1.538174 0.500000 0.967026
v -1.374181 0.500000 0.917721
v -1.207896 0.500000 0.879249
v -1.036612 0.500000 0.850776
v -0.857619 0.500000 0.831470
v -0.668209 0.500000 0.820498
v -0.465674 0.500000 0.817026
v -0.148116 0.500000 0.835428
v 0.153122 0.500000 0.889248
v 0.435889 0.500000 0.976401
v 0.698030 0.500000 1.094804
v 0.937394 0.500000 1.242373
v 1.151826 0.500000 1.417027
v 1.339176 0.500000 1.616679
v 1.497290 0.500000 1.839249
v 1.624014 0.500000 2.082652
v 1.717197 0.500000 2.344804
v 1.774686 0.500000 2.623624
v 1.794326 0.500000 2.917026
v 1.776259 0.500000 3.242593
v 1.723123 0.500000 3.548230
v 1.636514 0.500000 3.832339
v 1.518030 0.500000 4.093322
v 1.369268 0.500000 4.329584
v 1.191826 0.500000 4.539526
v 0.987300 0.500000 4.721551
v 0.757289 0.500000 4.874063
v 0.503388 0.500000 4.995463
v 0.227196 0.500000 5.084156
v -0.069690 0.500000 5.138542
v -0.385674 0.500000 5.157026
v -0.737977 0.500000 5.128577
v -1.080766 0.500000 5.044434
v -1.407861 0.500000 4.906401
v -1.713081 0.500000 4.716285
v -1.990245 0.500000 4.475892
v -2.233173 0.500000 4.187026
v -2.435685 0.500000 3.851493
v -2.591599 0.500000 3.471100
v -2.694736 0.500000 3.047651
v -2.738914 0.500000 2.582952
v -2.717953 0.500000 2.078808
vn 0.0000 -1.0000 0.0000
vn 0.0000 1.0000 0.0000
vn 0.7653 0.0000 -0.6436
vn -0.7637 0.0000 -0.6455
vn 0.9058 0.0000 -0.4237
vn 0.9793 0.0000 0.2026
vn 0.4477 0.0000 0.8942
vn 0.2254 0.0000 0.9743
vn -0.4506 0.0000 -0.8927
vn -0.7452 0.0000 -0.6669
vn -0.8870 0.0000 0.4618
vn 0.5147 0.0000 0.8573
vn -0.4574 0.0000 0.8892
vn 0.8436 0.0000 -0.5370
vn 0.3383 0.0000 0.9410
vn 0.3888 0.0000 -0.9213
vn 0.0578 0.0000 0.9983
vn -0.1802 0.0000 -0.9836
vn 0.5307 0.0000 0.8475
vn -0.8404 0.0000 -0.5420
vn 0.7662 0.0000 -0.6425
vn 0.9716 0.0000 -0.2366
vn 0.9977 0.0000 0.0684
vn -0.8821 0.0000 -0.4711
vn 0.4853 0.0000 0.8743
vn -0.5248 0.0000 0.8512
vn 0.4540 0.0000 -0.8910
vn -0.0767 0.0000 -0.9971
vn -0.0257 0.0000 -0.9997
vn -0.7852 0.0000 0.6193
vn 0.8300 0.0000 0.5578
vn 0.7828 0.0000 0.6223
vn -0.1759 0.0000 0.9844
vn -0.5526 0.0000 -0.8334
vn -0.9565 0.0000 -0.2916
vn 0.5287 0.0000 -0.8488
vn 0.3292 0.0000 -0.9443
vn -0.6931 0.0000 -0.7209
vn -0.4116 0.0000 0.9113
vn -0.0584 0.0000 -0.9983
vn 0.6689 0.0000 0.7434
vn 0.0805 0.0000 -0.9968
vn 0.9991 0.0000 0.0415
vn -0.8152 0.0000 0.5791
vn 0.9858 0.0000 0.1679
vn -0.9985 0.0000 -0.0554
vn -0.0579 0.0000 0.9983
vn -0.9989 0.0000 -0.0466
vn -0.3030 0.0000 -0.9530
vn -0.9495 0.0000 -0.3137
vn -0.4314 0.0000 -0.9022
vn 0.2082 0.0000 0.9781
vn 0.6746 0.0000 -0.7382
vn -0.8619 0.0000 0.5072
vn 0.8521 0.0000 0.5234
vn 0.3477 0.0000 0.9376
vn 0.1072 0.0000 0.9942
vn 0.4016 0.0000 0.9158
vn -0.9986 0.0000 0.0521
vn -0.6388 0.0000 -0.7693
vn -0.1265 0.0000 -0.9920
vn 0.9982 0.0000 -0.0605
vn 0.7541 0.0000 0.6567
vn -0.3730 0.0000 -0.9278
vn 0.6668 0.0000 0.7452
vn 0.2879 0.0000 0.9577
vn -0.3398 0.0000 -0.9405
vn 0.7087 0.0000 0.7055
vn -0.9106 0.0000 -0.4134
vn -0.4027 0.0000 -0.9153
vn -0.8462 0.0000 -0.5328
vn 0.9955 0.0000 -0.0946
vn 0.5699 0.0000 -0.8217
vn 0.9831 0.0000 -0.1831
vn -0.9903 0.0000 -0.1386
vn 0.9460 0.0000 0.3243
vn -0.0630 0.0000 0.9980
vn 0.5369 0.0000 0.8437
vn 0.8180 0.0000 0.5753
vn -0.9852 0.0000 -0.1713
vn 0.9167 0.0000 0.3995
vn -0.6315 0.0000 0.7754
vn 0.5807 0.0000 0.8141
vn -0.9204 0.0000 0.3911
vn -0.4286 0.0000 -0.9035
vn -0.7945 0.0000 -0.6072
vn 0.6265 0.0000 0.7794
vn -0.9794 0.0000 0.2019
vn -0.1938 0.0000 0.9810
vn -0.2945 0.0000 0.9556
vn -0.5802 0.0000 0.8145
vn 0.1986 0.0000 -0.9801
vn 0.0171 0.0000 0.9999
vn 0.7465 0.0000 0.6654
vn 0.6552 0.0000 -0.7554
vn 0.8561 0.0000 -0.5167
vn -0.9978 0.0000 0.0668
vn 0.8936 0.0000 0.4488
vn -0.9737 0.0000 -0.2280
vn -0.7292 0.0000 0.6843
vn -0.3269 0.0000 0.9451
vn 0.9440 0.0000 0.3301
vn 0.0658 0.0000 -0.9978
vn 0.2384 0.0000 -0.9712
vn -0.6906 0.0000 0.7232
vn -0.9615 0.0000 0.2747
vn -0.1744 0.0000 -0.9847
vn 0.9253 0.0000 -0.3793
vn -0.2201 0.0000 -0.9755
vn 0.0704 0.0000 0.9975
vn -0.9187 0.0000 -0.3949
vn -0.9869 0.0000 0.1611
vn 0.4587 0.0000 0.8886
vn 0.9524 0.0000 -0.3049
vn -0.9422 0.0000 0.3349
vn -0.3057 0.0000 -0.9521
vn 0.1640 0.0000 0.9865
vn 0.5683 0.0000 0.8228
vn -0.2630 0.0000 -0.9648
vn -0.5830 0.0000 -0.8125
vn 0.7860 0.0000 -0.6183
vn -0.6648 0.0000 -0.7470
vn 0.8852 0.0000 0.4653
usemtl NumberColour
s off
f 2//1 1//1 73//1
f 3//1 2//1 73//1
f 4//1 3//1 73//1
f 4//1 73//1 72//1
f 4//1 72//1 71//1
f 5//1 4//1 71//1
f 5//1 71//1 70//1
f 5//1 70//1 69//1
f 6//1 5//1 69//1
f 6//1 69//1 68//1
f 6//1 68//1 67//1
f 7//1 6//1 67//1
f 7//1 67//1 66//1
f 7//1 66//1 65//1
f 8//1 7//1 65//1
f 8//1 65//1 64//1
f 9//1 8//1 64//1
f 9//1 64//1 63//1
f 9//1 63//1 62//1
f 10//1 9//1 62//1
f 50//1 49//1 48//1
f 51//1 50//1 48//1
f 52//1 51//1 48//1
f 52//1 48//1 47//1
f 53//1 52//1 47//1
f 54//1 53//1 47//1
f 10//1 62//1 61//1
f 55//1 54//1 47//1
f 55//1 47//1 46//1
f 56//1 55//1 46//1
f 57//1 56//1 46//1
f 58//1 57//1 46//1
f 58//1 46//1 45//1
f 59//1 58//1 45//1
f 60//1 59//1 45//1
f 61//1 60//1 45//1
f 61//1 45//1 44//1
f 10//1 61//1 44//1
f 11//1 10//1 44//1
f 11//1 44//1 43//1
f 11//1 43//1 42//1
f 12//1 11//1 83//1
f 83//1 11//1 84//1
f 84//1 11//1 42//1
f 84//1 42//1 85//1
f 85//1 42//1 86//1
f 86//1 42//1 41//1
f 87//1 86//1 41//1
f 88//1 87//1 41//1
f 12//1 83//1 82//1
f 12//1 82//1 81//1
f 89//1 88//1 41//1
f 89//1 41//1 40//1
f 12//1 81//1 80//1
f 12//1 80//1 79//1
f 90//1 89//1 40//1
f 12//1 79//1 78//1
f 91//1 90//1 40//1
f 12//1 78//1 77//1
f 12//1 77//1 76//1
f 92//1 91//1 40//1
f 12//1 76//1 75//1
f 13//1 12//1 75//1
f 92//1 40//1 39//1
f 13//1 75//1 74//1
f 93//1 92//1 39//1
f 13//1 74//1 121//1
f 94//1 93//1 39//1
f 95//1 94//1 39//1
f 95//1 39//1 38//1
f 13//1 121//1 120//1
f 96//1 95//1 38//1
f 14//1 13//1 120//1
f 97//1 96//1 38//1
f 97//1 38//1 37//1
f 14//1 120//1 119//1
f 98//1 97//1 37//1
f 15//1 14//1 119//1
f 99//1 98//1 37//1
f 99//1 37//1 36//1
f 15//1 119//1 118//1
f 100//1 99//1 36//1
f 15//1 118//1 117//1
f 100//1 36//1 35//1
f 16//1 15//1 117//1
f 101//1 100//1 35//1
f 102//1 101//1 35//1
f 16//1 117//1 116//1
f 102//1 35//1 34//1
f 103//1 102//1 34//1
f 17//1 16//1 116//1
f 17//1 116//1 115//1
f 104//1 103//1 34//1
f 17//1 115//1 114//1
f 104//1 34//1 33//1
f 105//1 104//1 33//1
f 18//1 17//1 114//1
f 18//1 114//1 113//1
f 106//1 105//1 33//1
f 107//1 106//1 33//1
f 18//1 113//1 112//1
f 107//1 33//1 32//1
f 108//1 107//1 32//1
f 18//1 112//1 111//1
f 109//1 108//1 32//1
f 18//1 111//1 110//1
f 110//1 109//1 32//1
f 18//1 110//1 32//1
f 19//1 18//1 32//1
f 19//1 32//1 31//1
f 20//1 19//1 31//1
f 20//1 31//1 30//1
f 21//1 20//1 30//1
f 21//1 30//1 29//1
f 22//1 21//1 29//1
f 22//1 29//1 28//1
f 23//1 22//1 28//1
f 23//1 28//1 27//1
f 24//1 23//1 27//1
f 24//1 27//1 26//1
f 25//1 24//1 26//1
f 123//2 194//2 122//2
f 124//2 194//2 123//2
f 125//2 194//2 124//2
f 125//2 193//2 194//2
f 125//2 192//2 193//2
f 126//2 192//2 125//2
f 126//2 191//2 192//2
f 126//2 190//2 191//2
f 127//2 190//2 126//2
f 127//2 189//2 190//2
f 127//2 188//2 189//2
f 128//2 188//2 127//2
f 128//2 187//2 188//2
f 128//2 186//2 187//2
f 129//2 186//2 128//2
f 129//2 185//2 186//2
f 130//2 185//2 129//2
f 130//2 184//2 185//2
f 130//2 183//2 184//2
f 131//2 183//2 130//2
f 171//2 169//2 170//2
f 172//2 169//2 171//2
f 173//2 169//2 172//2
f 173//2 168//2 169//2
f 174//2 168//2 173//2
f 175//2 168//2 174//2
f 131//2 182//2 183//2
f 176//2 168//2 175//2
f 176//2 167//2 168//2
f 177//2 167//2 176//2
f 178//2 167//2 177//2
f 179//2 167//2 178//2
f 179//2 166//2 167//2
f 180//2 166//2 179//2
f 181//2 166//2 180//2
f 182//2 166//2 181//2
f 182//2 165//2 166//2
f 131//2 165//2 182//2
f 132//2 165//2 131//2
f 132//2 164//2 165//2
f 132//2 163//2 164//2
f 133//2 204//2 132//2
f 204//2 205//2 132//2
f 205//2 163//2 132//2
f 205//2 206//2 163//2
f 206//2 207//2 163//2
f 207//2 162//2 163//2
f 208//2 162//2 207//2
f 209//2 162//2 208//2
f 133//2 203//2 204//2
f 133//2 202//2 203//2
f 210//2 162//2 209//2
f 210//2 161//2 162//2
f 133//2 201//2 202//2
f 133//2 200//2 201//2
f 211//2 161//2 210//2
f 133//2 199//2 200//2
f 212//2 161//2 211//2
f 133//2 198//2 199//2
f 133//2 197//2 198//2
f 213//2 161//2 212//2
f 133//2 196//2 197//2
f 134//2 196//2 133//2
f 213//2 160//2 161//2
f 134//2 195//2 196//2
f 214//2 160//2 213//2
f 134//2 242//2 195//2
f 215//2 160//2 214//2
f 216//2 160//2 215//2
f 216//2 159//2 160//2
f 134//2 241//2 242//2
f 217//2 159//2 216//2
f 135//2 241//2 134//2
f 218//2 159//2 217//2
f 218//2 158//2 159//2
f 135//2 240//2 241//2
f 219//2 158//2 218//2
f 136//2 240//2 135//2
f 220//2 158//2 219//2
f 220//2 157//2 158//2
f 136//2 239//2 240//2
f 221//2 157//2 220//2
f 136//2 238//2 239//2
f 221//2 156//2 157//2
f 137//2 238//2 136//2
f 222//2 156//2 221//2
f 223//2 156//2 222//2
f 137//2 237//2 238//2
f 223//2 155//2 156//2
f 224//2 155//2 223//2
f 138//2 237//2 137//2
f 138//2 236//2 237//2
f 225//2 155//2 224//2
f 138//2 235//2 236//2
f 225//2 154//2 155//2
f 226//2 154//2 225//2
f 139//2 235//2 138//2
f 139//2 234//2 235//2
f 227//2 154//2 226//2
f 228//2 154//2 227//2
f 139//2 233//2 234//2
f 228//2 153//2 154//2
f 229//2 153//2 228//2
f 139//2 232//2 233//2
f 230//2 153//2 229//2
f 139//2 231//2 232//2
f 231//2 153//2 230//2
f 139//2 153//2 231//2
f 140//2 153//2 139//2
f 140//2 152//2 153//2
f 141//2 152//2 140//2
f 141//2 151//2 152//2
f 142//2 151//2 141//2
f 142//2 150//2 151//2
f 143//2 150//2 142//2
f 143//2 149//2 150//2
f 144//2 149//2 143//2
f 144//2 148//2 149//2
f 145//2 148//2 144//2
f 145//2 147//2 148//2
f 146//2 147//2 145//2
f 116//3 236//3 115//3
f 104//4 224//4 103//4
f 41//5 161//5 40//5
f 36//6 156//6 35//6
f 78//7 198//7 77//7
f 82//8 202//8 81//8
f 61//9 181//9 60//9
f 5//10 125//10 4//10
f 95//11 215//11 94//11
f 76//12 196//12 75//12
f 22//13 142//13 21//13
f 42//14 162//14 41//14
f 28//15 148//15 27//15
f 113//16 233//16 112//16
f 85//17 205//17 84//17
f 109//18 229//18 108//18
f 73//19 193//19 72//19
f 7//20 127//20 6//20
f 43//21 163//21 42//21
f 119//22 239//22 118//22
f 37//23 157//23 36//23
f 8//24 128//24 7//24
f 77//25 197//25 76//25
f 91//26 211//26 90//26
f 46//27 166//27 45//27
f 51//28 171//28 50//28
f 50//29 170//29 49//29
f 19//30 139//30 18//30
f 33//31 153//31 32//31
f 67//32 187//32 66//32
f 88//33 208//33 87//33
f 106//34 226//34 105//34
f 101//35 221//35 100//35
f 114//36 234//36 113//36
f 47//37 167//37 46//37
f 4//38 124//38 3//38
f 90//39 210//39 89//39
f 110//40 230//40 109//40
f 70//41 190//41 69//41
f 111//42 231//42 110//42
f 121//43 241//43 120//43
f 94//44 214//44 93//44
f 74//45 242//45 121//45
f 99//46 219//46 98//46
f 87//47 207//47 86//47
f 13//48 133//48 12//48
f 56//49 176//49 55//49
f 10//50 130//50 9//50
f 107//51 227//51 106//51
f 27//52 147//52 26//52
f 44//53 164//53 43//53
f 18//54 138//54 17//54
f 65//55 185//55 64//55
f 80//56 200//56 79//56
f 84//57 204//57 83//57
f 79//58 199//58 78//58
f 14//59 134//59 13//59
f 3//60 123//60 2//60
f 52//61 172//61 51//61
f 38//62 158//62 37//62
f 32//63 152//63 31//63
f 58//64 178//64 57//64
f 31//65 151//65 30//65
f 81//66 201//66 80//66
f 57//67 177//67 56//67
f 69//68 189//68 68//68
f 102//69 222//69 101//69
f 59//70 179//70 58//70
f 103//71 223//71 102//71
f 120//72 240//72 119//72
f 45//73 165//73 44//73
f 39//74 159//74 38//74
f 12//75 132//75 11//75
f 62//76 182//76 61//76
f 25//77 145//77 24//77
f 75//78 195//78 74//78
f 66//79 186//79 65//79
f 100//80 220//80 99//80
f 63//81 183//81 62//81
f 92//82 212//82 91//82
f 72//83 192//83 71//83
f 17//84 137//84 16//84
f 60//85 180//85 59//85
f 6//86 126//86 5//86
f 71//87 191//87 70//87
f 97//88 217//88 96//88
f 24//89 144//89 23//89
f 89//90 209//90 88//90
f 21//91 141//91 20//91
f 48//92 168//92 47//92
f 86//93 206//93 85//93
f 68//94 188//94 67//94
f 115//95 235//95 114//95
f 117//96 237//96 116//96
f 98//97 218//97 97//97
f 34//98 154//98 33//98
f 11//99 131//99 10//99
f 93//100 213//100 92//100
f 23//101 143//101 22//101
f 35//102 155//102 34//102
f 49//103 169//103 48//103
f 112//104 232//104 111//104
f 20//105 140//105 19//105
f 16//106 136//106 15//106
f 53//107 173//107 52//107
f 118//108 238//108 117//108
f 54//109 174//109 53//109
f 26//110 146//110 25//110
f 9//111 129//111 8//111
f 15//112 135//112 14//112
f 29//113 149//113 28//113
f 40//114 160//114 39//114
f 96//115 216//115 95//115
f 108//116 228//116 107//116
f 83//117 203//117 82//117
f 30//118 150//118 29//118
f 55//119 175//119 54//119
f 2//120 122//120 1//120
f 1//121 194//121 73//121
f 105//122 225//122 104//122
f 64//123 184//123 63//123
f 116//3 237//3 236//3
f 104//4 225//4 224//4
f 41//5 162//5 161//5
f 36//6 157//6 156//6
f 78//7 199//7 198//7
f 82//8 203//8 202//8
f 61//9 182//9 181//9
f 5//10 126//10 125//10
f 95//11 216//11 215//11
f 76//12 197//12 196//12
f 22//13 143//13 142//13
f 42//14 163//14 162//14
f 28//15 149//15 148//15
f 113//16 234//16 233//16
f 85//17 206//17 205//17
f 109//18 230//18 229//18
f 73//19 194//19 193//19
f 7//20 128//20 127//20
f 43//21 164//21 163//21
f 119//22 240//22 239//22
f 37//23 158//23 157//23
f 8//24 129//24 128//24
f 77//25 198//25 197//25
f 91//26 212//26 211//26
f 46//27 167//27 166//27
f 51//28 172//28 171//28
f 50//29 171//29 170//29
f 19//30 140//30 139//30
f 33//31 154//31 153//31
f 67//32 188//32 187//32
f 88//33 209//33 208//33
f 106//34 227//34 226//34
f 101//35 222//35 221//35
f 114//36 235//36 234//36
f 47//37 168//37 167//37
f 4//38 125//38 124//38
f 90//39 211//39 210//39
f 110//40 231//40 230//40
f 70//41 191//41 190//41
f 111//42 232//42 231//42
f 121//43 242//43 241//43
f 94//44 215//44 214//44
f 74//45 195//45 242//45
f 99//46 220//46 219//46
f 87//47 208//47 207//47
f 13//48 134//48 133//48
f 56//49 177//49 176//49
f 10//50 131//50 130//50
f 107//51 228//51 227//51
f 27//52 148//52 147//52
f 44//53 165//53 164//53
f 18//54 139//54 138//54
f 65//55 186//55 185//55
f 80//56 201//56 200//56
f 84//57 205//57 204//57
f 79//58 200//58 199//58
f 14//59 135//59 134//59
f 3//60 124//60 123//60
f 52//61 173//61 172//61
f 38//62 159//62 158//62
f 32//63 153//63 152//63
f 58//64 179//64 178//64
f 31//65 152//65 151//65
f 81//66 202//66 201//66
f 57//67 178//67 177//67
f 69//68 190//68 189//68
f 102//69 223//69 222//69
f 59//70 180//70 179//70
f 103//71 224//71 223//71
f 120//72 241//72 240//72
f 45//73 166//73 165//73
f 39//74 160//74 159//74
f 12//75 133//75 132//75
f 62//76 183//76 182//76
f 25//77 146//77 145//77
f 75//78 196//78 195//78
f 66//79 187//79 186//79
f 100//80 221//80 220//80
f 63//81 184//81 183//81
f 92//82 213//82 212//82
f 72//83 193//83 192//83
f 17//84 138//84 137//84
f 60//85 181//85 180//85
f 6//86 127//86 126//86
f 71//87 192//87 191//87
f 97//88 218//88 217//88
f 24//89 145//89 144//89
f 89//90 210//90 209//90
f 21//91 142//91 141//91
f 48//92 169//92 168//92
f 86//93 207//93 206//93
f 68//94 189//94 188//94
f 115//95 236//95 235//95
f 117//96 238//96 237//96
f 98//97 219//97 218//97
f 34//98 155//98 154//98
f 11//99 132//99 131//99
f 93//100 214//100 213//100
f 23//101 144//101 143//101
f 35//102 156//102 155//102
f 49//103 170//103 169//103
f 112//104 233//104 232//104
f 20//105 141//105 140//105
f 16//106 137//106 136//106
f 53//107 174//107 173//107
f 118//108 239//108 238//108
f 54//109 175//109 174//109
f 26//110 147//110 146//110
f 9//111 130//111 129//111
f 15//112 136//112 135//112
f 29//113 150//113 149//113
f 40//114 161//114 160//114
f 96//115 217//115 216//115
f 108//116 229//116 228//116
f 83//117 204//117 203//117
f 30//118 151//118 150//118
f 55//119 176//119 175//119
f 2//120 123//120 122//120
f 1//121 122//121 194//121
f 105//122 226//122 225//122
f 64//123 185//123 184//123
v -10.000000 0.000000 10.000000
v 10.000000 0.000000 10.000000
v -10.000000 0.000000 -10.000000
v 10.000000 0.000000 -10.000000
vn 0.0000 1.0000 0.0000
usemtl TileWhite
s off
f 244//124 245//124 243//124
f 244//124 246//124 245//124
