# Blender v2.78 (sub 0) OBJ File: 'TileTwo.blend'
# www.blender.org
mtllib TileTwo.mtl
v 4.335622 0.000000 5.171962
v -0.884378 0.000000 5.171962
v -0.162342 0.000000 4.302402
v 0.485251 0.000000 3.498814
v 1.060621 0.000000 2.753838
v 1.565991 0.000000 2.060111
v 2.003584 0.000000 1.410273
v 2.375621 0.000000 0.796963
v 2.684324 0.000000 0.212820
v 2.931917 0.000000 -0.349518
v 3.120621 0.000000 -0.897411
v 3.252658 0.000000 -1.438221
v 3.330251 0.000000 -1.979308
v 3.355621 0.000000 -2.528038
v 3.320748 0.000000 -3.141232
v 3.218307 0.000000 -3.718594
v 3.051558 0.000000 -4.256788
v 2.823769 0.000000 -4.752482
v 2.538202 0.000000 -5.202344
v 2.198121 0.000000 -5.603039
v 1.806790 0.000000 -5.951233
v 1.367473 0.000000 -6.243594
v 0.883434 0.000000 -6.476789
v 0.357936 0.000000 -6.647483
v -0.205756 0.000000 -6.752344
v -0.804379 0.000000 -6.788038
v -1.077804 0.000000 -6.779265
v -1.348453 0.000000 -6.752853
v -1.616879 0.000000 -6.708664
v -1.883638 0.000000 -6.646558
v -2.149286 0.000000 -6.566396
v -2.414379 0.000000 -6.468040
v -2.679471 0.000000 -6.351350
v -2.945119 0.000000 -6.216187
v -3.211879 0.000000 -6.062414
v -3.480305 0.000000 -5.889891
v -3.750953 0.000000 -5.698479
v -4.024379 0.000000 -5.488038
v -4.024379 0.000000 -3.028038
v -3.751416 0.000000 -3.358339
v -3.482342 0.000000 -3.650446
v -3.216879 0.000000 -3.906163
v -2.954749 0.000000 -4.127297
v -2.695675 0.000000 -4.315654
v -2.439379 0.000000 -4.473038
v -2.185582 0.000000 -4.601255
v -1.934008 0.000000 -4.702112
v -1.684379 0.000000 -4.777413
v -1.436416 0.000000 -4.828964
v -1.189842 0.000000 -4.858571
v -0.944379 0.000000 -4.868038
v -0.616844 0.000000 -4.846313
v -0.305768 0.000000 -4.782575
v -0.013441 0.000000 -4.678975
v 0.257843 0.000000 -4.537667
v 0.505795 0.000000 -4.360804
v 0.728121 0.000000 -4.150537
v 0.922531 0.000000 -3.909021
v 1.086732 0.000000 -3.638408
v 1.218434 0.000000 -3.340850
v 1.315343 0.000000 -3.018500
v 1.375170 0.000000 -2.673512
v 1.395621 0.000000 -2.308038
v 1.388955 0.000000 -2.032112
v 1.368955 0.000000 -1.772298
v 1.335621 0.000000 -1.525538
v 1.288955 0.000000 -1.288779
v 1.228955 0.000000 -1.058965
v 1.155622 0.000000 -0.833039
v 1.068955 0.000000 -0.607946
v 0.968955 0.000000 -0.380631
v 0.855622 0.000000 -0.148039
v 0.728955 0.000000 0.092887
v 0.588955 0.000000 0.345202
v 0.435622 0.000000 0.611962
v 0.127323 0.000000 1.116708
v -0.214100 0.000000 1.638259
v -0.583441 0.000000 2.172587
v -0.975490 0.000000 2.715666
v -1.385038 0.000000 3.263467
v -1.806879 0.000000 3.811963
v -2.235802 0.000000 4.357125
v -2.666601 0.000000 4.894926
v -3.094066 0.000000 5.421338
v -3.512990 0.000000 5.932333
v -3.918163 0.000000 6.423884
v -4.304379 0.000000 6.891963
v -4.304379 0.000000 7.031962
v 4.335622 0.000000 7.031962
v 4.335622 0.500000 5.171962
v -0.884378 0.500000 5.171962
v -0.162342 0.500000 4.302402
v 0.485251 0.500000 3.498814
v 1.060621 0.500000 2.753838
v 1.565991 0.500000 2.060111
v 2.003584 0.500000 1.410273
v 2.375621 0.500000 0.796963
v 2.684324 0.500000 0.212820
v 2.931917 0.500000 -0.349518
v 3.120621 0.500000 -0.897411
v 3.252658 0.500000 -1.438221
v 3.330251 0.500000 -1.979308
v 3.355621 0.500000 -2.528038
v 3.320748 0.500000 -3.141232
v 3.218307 0.500000 -3.718594
v 3.051558 0.500000 -4.256788
v 2.823769 0.500000 -4.752482
v 2.538202 0.500000 -5.202344
v 2.198121 0.500000 -5.603039
v 1.806790 0.500000 -5.951233
v 1.367473 0.500000 -6.243594
v 0.883434 0.500000 -6.476789
v 0.357936 0.500000 -6.647483
v -0.205756 0.500000 -6.752344
v -0.804379 0.500000 -6.788038
v -1.077804 0.500000 -6.779265
v -1.348453 0.500000 -6.752853
v -1.616879 0.500000 -6.708664
v -1.883638 0.500000 -6.646558
v -2.149286 0.500000 -6.566396
v -2.414379 0.500000 -6.468040
v -2.679471 0.500000 -6.351350
v -2.945119 0.500000 -6.216187
v -3.211879 0.500000 -6.062414
v -3.480305 0.500000 -5.889891
v -3.750953 0.500000 -5.698479
v -4.024379 0.500000 -5.488038
v -4.024379 0.500000 -3.028038
v -3.751416 0.500000 -3.358339
v -3.482342 0.500000 -3.650446
v -3.216879 0.500000 -3.906163
v -2.954749 0.500000 -4.127297
v -2.695675 0.500000 -4.315654
v -2.439379 0.500000 -4.473038
v -2.185582 0.500000 -4.601255
v -1.934008 0.500000 -4.702112
v -1.684379 0.500000 -4.777413
v -1.436416 0.500000 -4.828964
v -1.189842 0.500000 -4.858571
v -0.944379 0.500000 -4.868038
v -0.616844 0.500000 -4.846313
v -0.305768 0.500000 -4.782575
v -0.013441 0.500000 -4.678975
v 0.257843 0.500000 -4.537667
v 0.505795 0.500000 -4.360804
v 0.728121 0.500000 -4.150537
v 0.922531 0.500000 -3.909021
v 1.086732 0.500000 -3.638408
v 1.218434 0.500000 -3.340850
v 1.315343 0.500000 -3.018500
v 1.375170 0.500000 -2.673512
v 1.395621 0.500000 -2.308038
v 1.388955 0.500000 -2.032112
v 1.368955 0.500000 -1.772298
v 1.335621 0.500000 -1.525538
v 1.288955 0.500000 -1.288779
v 1.228955 0.500000 -1.058965
v 1.155622 0.500000 -0.833039
v 1.068955 0.500000 -0.607946
v 0.968955 0.500000 -0.380631
v 0.855622 0.500000 -0.148039
v 0.728955 0.500000 0.092887
v 0.588955 0.500000 0.345202
v 0.435622 0.500000 0.611962
v 0.127323 0.500000 1.116708
v -0.214100 0.500000 1.638259
v -0.583441 0.500000 2.172587
v -0.975490 0.500000 2.715666
v -1.385038 0.500000 3.263467
v -1.806879 0.500000 3.811963
v -2.235802 0.500000 4.357125
v -2.666601 0.500000 4.894926
v -3.094066 0.500000 5.421338
v -3.512990 0.500000 5.932333
v -3.918163 0.500000 6.423884
v -4.304379 0.500000 6.891963
v -4.304379 0.500000 7.031962
v 4.335622 0.500000 7.031962
vn 0.0000 -1.0000 0.0000
vn 0.0000 1.0000 0.0000
vn -0.8367 0.0000 -0.5477
vn -0.8744 0.0000 -0.4852
vn 0.2035 0.0000 0.9791
vn -0.8108 0.0000 -0.5853
vn 0.1192 0.0000 0.9929
vn -0.8549 0.0000 0.5187
vn -0.7790 0.0000 0.6270
vn 0.5233 0.0000 0.8522
vn -0.4994 0.0000 -0.8664
vn 0.4340 0.0000 -0.9009
vn -0.7716 0.0000 -0.6361
vn 0.3089 0.0000 -0.9511
vn -0.8009 0.0000 -0.5988
vn -0.0971 0.0000 -0.9953
vn 0.3721 0.0000 0.9282
vn -0.7859 0.0000 -0.6183
vn 0.0595 0.0000 -0.9982
vn 0.9984 0.0000 -0.0568
vn 0.4509 0.0000 0.8926
vn 0.8841 0.0000 0.4672
vn 0.9552 0.0000 -0.2959
vn -0.3340 0.0000 0.9426
vn 0.9899 0.0000 0.1419
vn 0.9152 0.0000 0.4030
vn -0.9144 0.0000 0.4047
vn -0.0321 0.0000 -0.9995
vn -0.0662 0.0000 0.9978
vn 0.0000 0.0000 -1.0000
vn 0.8083 0.0000 0.5888
vn -0.9811 0.0000 -0.1934
vn 0.9989 0.0000 0.0462
vn -0.9511 0.0000 -0.3087
vn -0.8990 0.0000 -0.4380
vn -0.8851 0.0000 -0.4654
vn 0.6647 0.0000 -0.7471
vn 0.7786 0.0000 0.6275
vn -0.9676 0.0000 -0.2526
vn -0.7763 0.0000 -0.6304
vn 0.9715 0.0000 0.2372
vn -0.9997 0.0000 -0.0242
vn 0.7355 0.0000 0.6775
vn -0.9153 0.0000 -0.4027
vn 0.6448 0.0000 0.7643
vn -0.8226 0.0000 -0.5686
vn 0.8295 0.0000 0.5586
vn 0.2888 0.0000 0.9574
vn 0.8443 0.0000 -0.5359
vn -1.0000 0.0000 0.0000
vn -0.5407 0.0000 -0.8412
vn 0.6938 0.0000 0.7202
vn 0.9846 0.0000 -0.1747
vn -0.4029 0.0000 -0.9153
vn 0.0000 0.0000 1.0000
vn -0.2007 0.0000 0.9796
vn -0.7927 0.0000 -0.6096
vn -0.8534 0.0000 -0.5213
vn 0.9455 0.0000 0.3256
vn -0.1624 0.0000 -0.9867
vn -0.2268 0.0000 -0.9740
vn -0.5807 0.0000 0.8141
vn -0.4535 0.0000 -0.8913
vn 0.8550 0.0000 0.5186
vn -0.6099 0.0000 -0.7925
vn 0.5880 0.0000 0.8088
vn -0.6871 0.0000 0.7265
vn -0.8670 0.0000 -0.4983
vn -0.4620 0.0000 0.8869
vn -0.2889 0.0000 -0.9574
vn 0.1829 0.0000 -0.9831
vn -0.9984 0.0000 0.0559
vn -0.9577 0.0000 0.2879
vn 0.7914 0.0000 0.6113
vn -0.7805 0.0000 -0.6252
vn -0.7733 0.0000 -0.6340
vn 0.0385 0.0000 0.9993
vn -0.9971 0.0000 -0.0768
vn 0.9087 0.0000 -0.4176
vn -0.9332 0.0000 -0.3593
vn -0.7713 0.0000 -0.6364
vn -0.9853 0.0000 0.1709
vn 0.5540 0.0000 -0.8325
vn -0.5774 0.0000 -0.8164
vn -0.9910 0.0000 -0.1339
vn -0.3479 0.0000 -0.9375
vn 0.7624 0.0000 -0.6471
vn 0.7708 0.0000 0.6370
vn 0.7693 0.0000 0.6388
vn 1.0000 0.0000 0.0000
usemtl Material.001
s off
f 27//1 26//1 25//1
f 28//1 27//1 25//1
f 29//1 28//1 25//1
f 29//1 25//1 24//1
f 30//1 29//1 24//1
f 30//1 24//1 23//1
f 31//1 30//1 23//1
f 32//1 31//1 23//1
f 32//1 23//1 22//1
f 33//1 32//1 22//1
f 34//1 33//1 22//1
f 34//1 22//1 21//1
f 35//1 34//1 21//1
f 36//1 35//1 21//1
f 36//1 21//1 20//1
f 37//1 36//1 20//1
f 38//1 37//1 20//1
f 38//1 20//1 19//1
f 39//1 38//1 40//1
f 40//1 38//1 41//1
f 41//1 38//1 42//1
f 42//1 38//1 43//1
f 43//1 38//1 44//1
f 44//1 38//1 45//1
f 45//1 38//1 46//1
f 46//1 38//1 47//1
f 47//1 38//1 48//1
f 48//1 38//1 49//1
f 49//1 38//1 50//1
f 50//1 38//1 19//1
f 50//1 19//1 51//1
f 51//1 19//1 18//1
f 52//1 51//1 18//1
f 53//1 52//1 18//1
f 54//1 53//1 18//1
f 54//1 18//1 17//1
f 55//1 54//1 17//1
f 56//1 55//1 17//1
f 57//1 56//1 17//1
f 57//1 17//1 16//1
f 58//1 57//1 16//1
f 59//1 58//1 16//1
f 59//1 16//1 15//1
f 60//1 59//1 15//1
f 61//1 60//1 15//1
f 61//1 15//1 14//1
f 62//1 61//1 14//1
f 63//1 62//1 14//1
f 63//1 14//1 13//1
f 64//1 63//1 13//1
f 65//1 64//1 13//1
f 65//1 13//1 12//1
f 66//1 65//1 12//1
f 67//1 66//1 12//1
f 67//1 12//1 11//1
f 68//1 67//1 11//1
f 69//1 68//1 11//1
f 69//1 11//1 10//1
f 70//1 69//1 10//1
f 71//1 70//1 10//1
f 72//1 71//1 10//1
f 72//1 10//1 9//1
f 73//1 72//1 9//1
f 74//1 73//1 9//1
f 74//1 9//1 8//1
f 75//1 74//1 8//1
f 76//1 75//1 8//1
f 76//1 8//1 7//1
f 77//1 76//1 7//1
f 77//1 7//1 6//1
f 78//1 77//1 6//1
f 78//1 6//1 5//1
f 79//1 78//1 5//1
f 80//1 79//1 5//1
f 80//1 5//1 4//1
f 81//1 80//1 4//1
f 81//1 4//1 3//1
f 82//1 81//1 3//1
f 82//1 3//1 2//1
f 83//1 82//1 2//1
f 84//1 83//1 2//1
f 84//1 2//1 1//1
f 84//1 1//1 89//1
f 85//1 84//1 89//1
f 86//1 85//1 89//1
f 87//1 86//1 89//1
f 88//1 87//1 89//1
f 116//2 114//2 115//2
f 117//2 114//2 116//2
f 118//2 114//2 117//2
f 118//2 113//2 114//2
f 119//2 113//2 118//2
f 119//2 112//2 113//2
f 120//2 112//2 119//2
f 121//2 112//2 120//2
f 121//2 111//2 112//2
f 122//2 111//2 121//2
f 123//2 111//2 122//2
f 123//2 110//2 111//2
f 124//2 110//2 123//2
f 125//2 110//2 124//2
f 125//2 109//2 110//2
f 126//2 109//2 125//2
f 127//2 109//2 126//2
f 127//2 108//2 109//2
f 128//2 129//2 127//2
f 129//2 130//2 127//2
f 130//2 131//2 127//2
f 131//2 132//2 127//2
f 132//2 133//2 127//2
f 133//2 134//2 127//2
f 134//2 135//2 127//2
f 135//2 136//2 127//2
f 136//2 137//2 127//2
f 137//2 138//2 127//2
f 138//2 139//2 127//2
f 139//2 108//2 127//2
f 139//2 140//2 108//2
f 140//2 107//2 108//2
f 141//2 107//2 140//2
f 142//2 107//2 141//2
f 143//2 107//2 142//2
f 143//2 106//2 107//2
f 144//2 106//2 143//2
f 145//2 106//2 144//2
f 146//2 106//2 145//2
f 146//2 105//2 106//2
f 147//2 105//2 146//2
f 148//2 105//2 147//2
f 148//2 104//2 105//2
f 149//2 104//2 148//2
f 150//2 104//2 149//2
f 150//2 103//2 104//2
f 151//2 103//2 150//2
f 152//2 103//2 151//2
f 152//2 102//2 103//2
f 153//2 102//2 152//2
f 154//2 102//2 153//2
f 154//2 101//2 102//2
f 155//2 101//2 154//2
f 156//2 101//2 155//2
f 156//2 100//2 101//2
f 157//2 100//2 156//2
f 158//2 100//2 157//2
f 158//2 99//2 100//2
f 159//2 99//2 158//2
f 160//2 99//2 159//2
f 161//2 99//2 160//2
f 161//2 98//2 99//2
f 162//2 98//2 161//2
f 163//2 98//2 162//2
f 163//2 97//2 98//2
f 164//2 97//2 163//2
f 165//2 97//2 164//2
f 165//2 96//2 97//2
f 166//2 96//2 165//2
f 166//2 95//2 96//2
f 167//2 95//2 166//2
f 167//2 94//2 95//2
f 168//2 94//2 167//2
f 169//2 94//2 168//2
f 169//2 93//2 94//2
f 170//2 93//2 169//2
f 170//2 92//2 93//2
f 171//2 92//2 170//2
f 171//2 91//2 92//2
f 172//2 91//2 171//2
f 173//2 91//2 172//2
f 173//2 90//2 91//2
f 173//2 178//2 90//2
f 174//2 178//2 173//2
f 175//2 178//2 174//2
f 176//2 178//2 175//2
f 177//2 178//2 176//2
f 77//3 165//3 76//3
f 74//4 162//4 73//4
f 49//5 137//5 48//5
f 79//6 167//6 78//6
f 50//7 138//7 49//7
f 59//8 147//8 58//8
f 58//9 146//9 57//9
f 45//10 133//10 44//10
f 35//11 123//11 34//11
f 23//12 111//12 22//12
f 86//13 174//13 85//13
f 24//14 112//14 23//14
f 80//15 168//15 79//15
f 28//16 116//16 27//16
f 47//17 135//17 46//17
f 82//18 170//18 81//18
f 26//19 114//19 25//19
f 15//20 103//20 14//20
f 46//21 134//21 45//21
f 9//22 97//22 8//22
f 17//23 105//23 16//23
f 54//24 142//24 53//24
f 13//25 101//25 12//25
f 10//26 98//26 9//26
f 60//27 148//27 59//27
f 27//28 115//28 26//28
f 52//29 140//29 51//29
f 2//30 90//30 1//30
f 6//31 94//31 5//31
f 67//32 155//32 66//32
f 14//33 102//33 13//33
f 69//34 157//34 68//34
f 72//35 160//35 71//35
f 73//36 161//36 72//36
f 21//37 109//37 20//37
f 4//38 92//38 3//38
f 68//39 156//39 67//39
f 84//40 172//40 83//40
f 12//41 100//41 11//41
f 64//42 152//42 63//42
f 41//43 129//43 40//43
f 71//44 159//44 70//44
f 43//45 131//45 42//45
f 78//46 166//46 77//46
f 7//47 95//47 6//47
f 48//48 136//48 47//48
f 19//49 107//49 18//49
f 39//50 127//50 38//50
f 36//51 124//51 35//51
f 42//52 130//52 41//52
f 16//53 104//53 15//53
f 33//54 121//54 32//54
f 89//55 177//55 88//55
f 53//56 141//56 52//56
f 81//57 169//57 80//57
f 76//58 164//58 75//58
f 11//59 99//59 10//59
f 29//60 117//60 28//60
f 30//61 118//61 29//61
f 56//62 144//62 55//62
f 34//63 122//63 33//63
f 8//64 96//64 7//64
f 38//65 126//65 37//65
f 44//66 132//66 43//66
f 57//67 145//67 56//67
f 75//68 163//68 74//68
f 55//69 143//69 54//69
f 31//70 119//70 30//70
f 25//71 113//71 24//71
f 63//72 151//72 62//72
f 61//73 149//73 60//73
f 5//74 93//74 4//74
f 83//75 171//75 82//75
f 85//76 173//76 84//76
f 51//77 139//77 50//77
f 65//78 153//78 64//78
f 18//79 106//79 17//79
f 70//80 158//80 69//80
f 87//81 175//81 86//81
f 88//50 176//50 87//50
f 62//82 150//82 61//82
f 22//83 110//83 21//83
f 37//84 125//84 36//84
f 66//85 154//85 65//85
f 32//86 120//86 31//86
f 20//87 108//87 19//87
f 40//88 128//88 39//88
f 3//89 91//89 2//89
f 1//90 178//90 89//90
f 77//3 166//3 165//3
f 74//4 163//4 162//4
f 49//5 138//5 137//5
f 79//6 168//6 167//6
f 50//7 139//7 138//7
f 59//8 148//8 147//8
f 58//9 147//9 146//9
f 45//10 134//10 133//10
f 35//11 124//11 123//11
f 23//12 112//12 111//12
f 86//13 175//13 174//13
f 24//14 113//14 112//14
f 80//15 169//15 168//15
f 28//16 117//16 116//16
f 47//17 136//17 135//17
f 82//18 171//18 170//18
f 26//19 115//19 114//19
f 15//20 104//20 103//20
f 46//21 135//21 134//21
f 9//22 98//22 97//22
f 17//23 106//23 105//23
f 54//24 143//24 142//24
f 13//25 102//25 101//25
f 10//26 99//26 98//26
f 60//27 149//27 148//27
f 27//28 116//28 115//28
f 52//29 141//29 140//29
f 2//30 91//30 90//30
f 6//31 95//31 94//31
f 67//32 156//32 155//32
f 14//33 103//33 102//33
f 69//34 158//34 157//34
f 72//35 161//35 160//35
f 73//36 162//36 161//36
f 21//37 110//37 109//37
f 4//38 93//38 92//38
f 68//39 157//39 156//39
f 84//40 173//40 172//40
f 12//41 101//41 100//41
f 64//42 153//42 152//42
f 41//43 130//43 129//43
f 71//44 160//44 159//44
f 43//45 132//45 131//45
f 78//46 167//46 166//46
f 7//47 96//47 95//47
f 48//48 137//48 136//48
f 19//49 108//49 107//49
f 39//50 128//50 127//50
f 36//51 125//51 124//51
f 42//52 131//52 130//52
f 16//53 105//53 104//53
f 33//54 122//54 121//54
f 89//55 178//55 177//55
f 53//56 142//56 141//56
f 81//57 170//57 169//57
f 76//58 165//58 164//58
f 11//59 100//59 99//59
f 29//60 118//60 117//60
f 30//61 119//61 118//61
f 56//62 145//62 144//62
f 34//63 123//63 122//63
f 8//64 97//64 96//64
f 38//65 127//65 126//65
f 44//66 133//66 132//66
f 57//67 146//67 145//67
f 75//68 164//68 163//68
f 55//69 144//69 143//69
f 31//70 120//70 119//70
f 25//71 114//71 113//71
f 63//72 152//72 151//72
f 61//73 150//73 149//73
f 5//74 94//74 93//74
f 83//75 172//75 171//75
f 85//76 174//76 173//76
f 51//77 140//77 139//77
f 65//78 154//78 153//78
f 18//79 107//79 106//79
f 70//80 159//80 158//80
f 87//81 176//81 175//81
f 88//50 177//50 176//50
f 62//82 151//82 150//82
f 22//83 111//83 110//83
f 37//84 126//84 125//84
f 66//85 155//85 154//85
f 32//86 121//86 120//86
f 20//87 109//87 108//87
f 40//88 129//88 128//88
f 3//89 92//89 91//89
f 1//90 90//90 178//90
v -10.000000 0.000000 10.000000
v 10.000000 0.000000 10.000000
v -10.000000 0.000000 -10.000000
v 10.000000 0.000000 -10.000000
vn 0.0000 1.0000 0.0000
usemtl TileBlack
s off
f 180//91 181//91 179//91
f 180//91 182//91 181//91
