# Blender v2.78 (sub 0) OBJ File: 'TileFive.blend'
# www.blender.org
mtllib TileFive.mtl
v 3.009626 0.000000 -6.525270
v -3.050374 0.000000 -6.525270
v -3.050374 0.000000 0.574731
v -2.326114 0.000000 0.437474
v -1.654633 0.000000 0.381675
v -1.037873 0.000000 0.401293
v -0.477780 0.000000 0.490286
v 0.023701 0.000000 0.642613
v 0.464627 0.000000 0.852231
v 0.843053 0.000000 1.113099
v 1.157035 0.000000 1.419176
v 1.404628 0.000000 1.764419
v 1.583887 0.000000 2.142787
v 1.692869 0.000000 2.548238
v 1.729627 0.000000 2.974731
v 1.703550 0.000000 3.304627
v 1.627682 0.000000 3.622231
v 1.505564 0.000000 3.924419
v 1.340738 0.000000 4.208065
v 1.136745 0.000000 4.470044
v 0.897127 0.000000 4.707232
v 0.625426 0.000000 4.916503
v 0.325183 0.000000 5.094732
v -0.000060 0.000000 5.238794
v -0.346762 0.000000 5.345565
v -0.711380 0.000000 5.411920
v -1.090373 0.000000 5.434731
v -1.340362 0.000000 5.427660
v -1.590281 0.000000 5.406490
v -1.840061 0.000000 5.371294
v -2.089633 0.000000 5.322139
v -2.338927 0.000000 5.259095
v -2.587873 0.000000 5.182231
v -2.836404 0.000000 5.091618
v -3.084448 0.000000 4.987324
v -3.331936 0.000000 4.869419
v -3.578800 0.000000 4.737972
v -3.824969 0.000000 4.593053
v -4.070374 0.000000 4.434731
v -4.070374 0.000000 6.454731
v -3.780096 0.000000 6.597301
v -3.498151 0.000000 6.725287
v -3.222873 0.000000 6.839107
v -2.952595 0.000000 6.939176
v -2.685651 0.000000 7.025912
v -2.420373 0.000000 7.099731
v -2.155095 0.000000 7.161051
v -1.888151 0.000000 7.210287
v -1.617873 0.000000 7.247856
v -1.342595 0.000000 7.274176
v -1.060651 0.000000 7.289662
v -0.770373 0.000000 7.294731
v -0.140640 0.000000 7.257069
v 0.455830 0.000000 7.146769
v 1.014939 0.000000 6.967856
v 1.532589 0.000000 6.724361
v 2.004684 0.000000 6.420310
v 2.427126 0.000000 6.059731
v 2.795818 0.000000 5.646652
v 3.106663 0.000000 5.185102
v 3.355563 0.000000 4.679106
v 3.538422 0.000000 4.132694
v 3.651141 0.000000 3.549893
v 3.689627 0.000000 2.934731
v 3.650853 0.000000 2.317706
v 3.536108 0.000000 1.730194
v 3.347752 0.000000 1.177544
v 3.088145 0.000000 0.665102
v 2.759650 0.000000 0.198215
v 2.364626 0.000000 -0.217769
v 1.905437 0.000000 -0.577502
v 1.384441 0.000000 -0.875639
v 0.804002 0.000000 -1.106831
v 0.166479 0.000000 -1.265731
v -0.525767 0.000000 -1.346993
v -1.270373 0.000000 -1.345269
v -1.270373 0.000000 -4.765270
v 3.009626 0.000000 -4.765270
v 3.009626 0.500000 -6.525270
v -3.050374 0.500000 -6.525270
v -3.050374 0.500000 0.574731
v -2.326114 0.500000 0.437474
v -1.654633 0.500000 0.381675
v -1.037873 0.500000 0.401293
v -0.477780 0.500000 0.490286
v 0.023701 0.500000 0.642613
v 0.464627 0.500000 0.852231
v 0.843053 0.500000 1.113099
v 1.157035 0.500000 1.419176
v 1.404628 0.500000 1.764419
v 1.583887 0.500000 2.142787
v 1.692869 0.500000 2.548238
v 1.729627 0.500000 2.974731
v 1.703550 0.500000 3.304627
v 1.627682 0.500000 3.622231
v 1.505564 0.500000 3.924419
v 1.340738 0.500000 4.208065
v 1.136745 0.500000 4.470044
v 0.897127 0.500000 4.707232
v 0.625426 0.500000 4.916503
v 0.325183 0.500000 5.094732
v -0.000060 0.500000 5.238794
v -0.346762 0.500000 5.345565
v -0.711380 0.500000 5.411920
v -1.090373 0.500000 5.434731
v -1.340362 0.500000 5.427660
v -1.590281 0.500000 5.406490
v -1.840061 0.500000 5.371294
v -2.089633 0.500000 5.322139
v -2.338927 0.500000 5.259095
v -2.587873 0.500000 5.182231
v -2.836404 0.500000 5.091618
v -3.084448 0.500000 4.987324
v -3.331936 0.500000 4.869419
v -3.578800 0.500000 4.737972
v -3.824969 0.500000 4.593053
v -4.070374 0.500000 4.434731
v -4.070374 0.500000 6.454731
v -3.780096 0.500000 6.597301
v -3.498151 0.500000 6.725287
v -3.222873 0.500000 6.839107
v -2.952595 0.500000 6.939176
v -2.685651 0.500000 7.025912
v -2.420373 0.500000 7.099731
v -2.155095 0.500000 7.161051
v -1.888151 0.500000 7.210287
v -1.617873 0.500000 7.247856
v -1.342595 0.500000 7.274176
v -1.060651 0.500000 7.289662
v -0.770373 0.500000 7.294731
v -0.140640 0.500000 7.257069
v 0.455830 0.500000 7.146769
v 1.014939 0.500000 6.967856
v 1.532589 0.500000 6.724361
v 2.004684 0.500000 6.420310
v 2.427126 0.500000 6.059731
v 2.795818 0.500000 5.646652
v 3.106663 0.500000 5.185102
v 3.355563 0.500000 4.679106
v 3.538422 0.500000 4.132694
v 3.651141 0.500000 3.549893
v 3.689627 0.500000 2.934731
v 3.650853 0.500000 2.317706
v 3.536108 0.500000 1.730194
v 3.347752 0.500000 1.177544
v 3.088145 0.500000 0.665102
v 2.759650 0.500000 0.198215
v 2.364626 0.500000 -0.217769
v 1.905437 0.500000 -0.577502
v 1.384441 0.500000 -0.875639
v 0.804002 0.500000 -1.106831
v 0.166479 0.500000 -1.265731
v -0.525767 0.500000 -1.346993
v -1.270373 0.500000 -1.345269
v -1.270373 0.500000 -4.765270
v 3.009626 0.500000 -4.765270
vn 0.0000 -1.0000 0.0000
vn 0.0000 1.0000 0.0000
vn 0.2418 0.0000 -0.9703
vn -0.0023 0.0000 -1.0000
vn 0.3700 0.0000 -0.9290
vn -1.0000 0.0000 0.0000
vn 0.0597 0.0000 0.9982
vn 0.9980 0.0000 -0.0627
vn -0.3821 0.0000 0.9241
vn -0.2681 0.0000 0.9634
vn 0.3876 0.0000 -0.9218
vn 0.6167 0.0000 -0.7872
vn -0.5105 0.0000 -0.8599
vn 0.2950 0.0000 -0.9555
vn -0.5676 0.0000 0.8233
vn -0.9969 0.0000 -0.0788
vn 0.8294 0.0000 0.5586
vn -0.1790 0.0000 -0.9838
vn 0.1862 0.0000 0.9825
vn 0.4301 0.0000 -0.9028
vn 0.4967 0.0000 -0.8679
vn -0.0175 0.0000 0.9998
vn 0.3425 0.0000 -0.9395
vn -0.1814 0.0000 0.9834
vn 0.1932 0.0000 -0.9812
vn -0.4294 0.0000 0.9031
vn -0.6980 0.0000 0.7161
vn 0.0844 0.0000 -0.9964
vn 0.5073 0.0000 -0.8618
vn -0.9726 0.0000 -0.2323
vn -0.0548 0.0000 0.9985
vn -0.7035 0.0000 -0.7107
vn 0.9818 0.0000 0.1899
vn 0.8973 0.0000 0.4414
vn 0.5415 0.0000 0.8407
vn 0.9465 0.0000 -0.3226
vn -0.4408 0.0000 0.8976
vn -0.2906 0.0000 0.9568
vn -0.1569 0.0000 0.9876
vn -0.9272 0.0000 -0.3747
vn 0.1166 0.0000 -0.9932
vn -0.8126 0.0000 0.5828
vn 1.0000 0.0000 0.0000
vn 0.9483 0.0000 0.3174
vn -0.6102 0.0000 -0.7922
vn -0.1377 0.0000 0.9905
vn -0.7890 0.0000 -0.6144
vn 0.7251 0.0000 -0.6886
vn 0.0000 0.0000 1.0000
vn 0.0283 0.0000 -0.9996
vn 0.9815 0.0000 -0.1917
vn -0.4133 0.0000 0.9106
vn 0.1395 0.0000 -0.9902
vn -0.8646 0.0000 -0.5024
vn 0.3048 0.0000 0.9524
vn -0.3472 0.0000 0.9378
vn 0.1818 0.0000 0.9833
vn -0.2943 0.0000 -0.9557
vn -0.9963 0.0000 0.0859
vn 0.7461 0.0000 0.6659
vn -0.3090 0.0000 0.9511
vn -0.0601 0.0000 -0.9982
vn 0.2452 0.0000 -0.9695
vn 0.4700 0.0000 -0.8827
vn 0.8179 0.0000 -0.5754
vn -0.2252 0.0000 0.9743
vn -0.4050 0.0000 -0.9143
vn 0.0000 0.0000 -1.0000
vn -0.9657 0.0000 0.2596
vn 0.9980 0.0000 0.0624
vn -0.0952 0.0000 0.9955
vn 0.5421 0.0000 -0.8403
vn 0.0828 0.0000 0.9966
vn 0.8921 0.0000 -0.4519
vn 0.4256 0.0000 0.9049
vn -0.9037 0.0000 0.4281
vn -0.0318 0.0000 0.9995
vn 0.6492 0.0000 0.7606
usemtl NumberColour
s off
f 3//1 2//1 77//1
f 77//1 2//1 1//1
f 77//1 1//1 78//1
f 3//1 77//1 76//1
f 76//1 75//1 74//1
f 3//1 76//1 74//1
f 3//1 74//1 73//1
f 3//1 73//1 72//1
f 3//1 72//1 71//1
f 3//1 71//1 4//1
f 4//1 71//1 70//1
f 4//1 70//1 5//1
f 5//1 70//1 69//1
f 5//1 69//1 6//1
f 6//1 69//1 68//1
f 7//1 6//1 68//1
f 8//1 7//1 68//1
f 9//1 8//1 68//1
f 9//1 68//1 67//1
f 10//1 9//1 67//1
f 11//1 10//1 67//1
f 11//1 67//1 66//1
f 12//1 11//1 66//1
f 12//1 66//1 65//1
f 13//1 12//1 65//1
f 14//1 13//1 65//1
f 14//1 65//1 64//1
f 15//1 14//1 64//1
f 15//1 64//1 63//1
f 16//1 15//1 63//1
f 17//1 16//1 63//1
f 17//1 63//1 62//1
f 18//1 17//1 62//1
f 19//1 18//1 62//1
f 19//1 62//1 61//1
f 20//1 19//1 61//1
f 40//1 39//1 38//1
f 21//1 20//1 61//1
f 40//1 38//1 37//1
f 21//1 61//1 60//1
f 22//1 21//1 60//1
f 40//1 37//1 36//1
f 40//1 36//1 35//1
f 23//1 22//1 60//1
f 40//1 35//1 34//1
f 40//1 34//1 33//1
f 24//1 23//1 60//1
f 40//1 33//1 32//1
f 24//1 60//1 59//1
f 25//1 24//1 59//1
f 40//1 32//1 31//1
f 40//1 31//1 30//1
f 26//1 25//1 59//1
f 40//1 30//1 29//1
f 40//1 29//1 28//1
f 27//1 26//1 59//1
f 40//1 28//1 27//1
f 40//1 27//1 59//1
f 40//1 59//1 58//1
f 40//1 58//1 57//1
f 40//1 57//1 56//1
f 41//1 40//1 56//1
f 42//1 41//1 56//1
f 42//1 56//1 55//1
f 43//1 42//1 55//1
f 44//1 43//1 55//1
f 45//1 44//1 55//1
f 45//1 55//1 54//1
f 46//1 45//1 54//1
f 47//1 46//1 54//1
f 47//1 54//1 53//1
f 48//1 47//1 53//1
f 49//1 48//1 53//1
f 50//1 49//1 53//1
f 50//1 53//1 52//1
f 51//1 50//1 52//1
f 81//2 155//2 80//2
f 155//2 79//2 80//2
f 155//2 156//2 79//2
f 81//2 154//2 155//2
f 154//2 152//2 153//2
f 81//2 152//2 154//2
f 81//2 151//2 152//2
f 81//2 150//2 151//2
f 81//2 149//2 150//2
f 81//2 82//2 149//2
f 82//2 148//2 149//2
f 82//2 83//2 148//2
f 83//2 147//2 148//2
f 83//2 84//2 147//2
f 84//2 146//2 147//2
f 85//2 146//2 84//2
f 86//2 146//2 85//2
f 87//2 146//2 86//2
f 87//2 145//2 146//2
f 88//2 145//2 87//2
f 89//2 145//2 88//2
f 89//2 144//2 145//2
f 90//2 144//2 89//2
f 90//2 143//2 144//2
f 91//2 143//2 90//2
f 92//2 143//2 91//2
f 92//2 142//2 143//2
f 93//2 142//2 92//2
f 93//2 141//2 142//2
f 94//2 141//2 93//2
f 95//2 141//2 94//2
f 95//2 140//2 141//2
f 96//2 140//2 95//2
f 97//2 140//2 96//2
f 97//2 139//2 140//2
f 98//2 139//2 97//2
f 118//2 116//2 117//2
f 99//2 139//2 98//2
f 118//2 115//2 116//2
f 99//2 138//2 139//2
f 100//2 138//2 99//2
f 118//2 114//2 115//2
f 118//2 113//2 114//2
f 101//2 138//2 100//2
f 118//2 112//2 113//2
f 118//2 111//2 112//2
f 102//2 138//2 101//2
f 118//2 110//2 111//2
f 102//2 137//2 138//2
f 103//2 137//2 102//2
f 118//2 109//2 110//2
f 118//2 108//2 109//2
f 104//2 137//2 103//2
f 118//2 107//2 108//2
f 118//2 106//2 107//2
f 105//2 137//2 104//2
f 118//2 105//2 106//2
f 118//2 137//2 105//2
f 118//2 136//2 137//2
f 118//2 135//2 136//2
f 118//2 134//2 135//2
f 119//2 134//2 118//2
f 120//2 134//2 119//2
f 120//2 133//2 134//2
f 121//2 133//2 120//2
f 122//2 133//2 121//2
f 123//2 133//2 122//2
f 123//2 132//2 133//2
f 124//2 132//2 123//2
f 125//2 132//2 124//2
f 125//2 131//2 132//2
f 126//2 131//2 125//2
f 127//2 131//2 126//2
f 128//2 131//2 127//2
f 128//2 130//2 131//2
f 129//2 130//2 128//2
f 74//3 151//3 73//3
f 76//4 153//4 75//4
f 73//5 150//5 72//5
f 3//6 80//6 2//6
f 53//7 130//7 52//7
f 65//8 142//8 64//8
f 43//9 120//9 42//9
f 46//10 123//10 45//10
f 35//11 112//11 34//11
f 71//12 148//12 70//12
f 23//13 100//13 22//13
f 33//14 110//14 32//14
f 10//15 87//15 9//15
f 16//16 93//16 15//16
f 60//17 137//17 59//17
f 26//18 103//18 25//18
f 4//19 81//19 3//19
f 36//20 113//20 35//20
f 72//21 149//21 71//21
f 52//22 129//22 51//22
f 34//23 111//23 33//23
f 48//24 125//24 47//24
f 31//25 108//25 30//25
f 9//26 86//26 8//26
f 11//27 88//27 10//27
f 29//28 106//28 28//28
f 38//29 115//29 37//29
f 17//30 94//30 16//30
f 51//31 128//31 50//31
f 21//32 98//32 20//32
f 63//33 140//33 62//33
f 61//34 138//34 60//34
f 57//35 134//35 56//35
f 67//36 144//36 66//36
f 41//37 118//37 40//37
f 8//38 85//38 7//38
f 7//39 84//39 6//39
f 18//40 95//40 17//40
f 75//41 152//41 74//41
f 12//42 89//42 11//42
f 1//43 156//43 78//43
f 62//44 139//44 61//44
f 22//45 99//45 21//45
f 49//46 126//46 48//46
f 20//47 97//47 19//47
f 70//48 147//48 69//48
f 78//49 155//49 77//49
f 28//50 105//50 27//50
f 66//51 143//51 65//51
f 40//6 117//6 39//6
f 42//52 119//52 41//52
f 30//53 107//53 29//53
f 19//54 96//54 18//54
f 55//55 132//55 54//55
f 44//56 121//56 43//56
f 54//57 131//57 53//57
f 25//58 102//58 24//58
f 15//59 92//59 14//59
f 59//60 136//60 58//60
f 45//61 122//61 44//61
f 27//62 104//62 26//62
f 32//63 109//63 31//63
f 77//43 154//43 76//43
f 37//64 114//64 36//64
f 69//65 146//65 68//65
f 47//66 124//66 46//66
f 24//67 101//67 23//67
f 2//68 79//68 1//68
f 14//69 91//69 13//69
f 64//70 141//70 63//70
f 50//71 127//71 49//71
f 39//72 116//72 38//72
f 5//73 82//73 4//73
f 68//74 145//74 67//74
f 56//75 133//75 55//75
f 13//76 90//76 12//76
f 6//77 83//77 5//77
f 58//78 135//78 57//78
f 74//3 152//3 151//3
f 76//4 154//4 153//4
f 73//5 151//5 150//5
f 3//6 81//6 80//6
f 53//7 131//7 130//7
f 65//8 143//8 142//8
f 43//9 121//9 120//9
f 46//10 124//10 123//10
f 35//11 113//11 112//11
f 71//12 149//12 148//12
f 23//13 101//13 100//13
f 33//14 111//14 110//14
f 10//15 88//15 87//15
f 16//16 94//16 93//16
f 60//17 138//17 137//17
f 26//18 104//18 103//18
f 4//19 82//19 81//19
f 36//20 114//20 113//20
f 72//21 150//21 149//21
f 52//22 130//22 129//22
f 34//23 112//23 111//23
f 48//24 126//24 125//24
f 31//25 109//25 108//25
f 9//26 87//26 86//26
f 11//27 89//27 88//27
f 29//28 107//28 106//28
f 38//29 116//29 115//29
f 17//30 95//30 94//30
f 51//31 129//31 128//31
f 21//32 99//32 98//32
f 63//33 141//33 140//33
f 61//34 139//34 138//34
f 57//35 135//35 134//35
f 67//36 145//36 144//36
f 41//37 119//37 118//37
f 8//38 86//38 85//38
f 7//39 85//39 84//39
f 18//40 96//40 95//40
f 75//41 153//41 152//41
f 12//42 90//42 89//42
f 1//43 79//43 156//43
f 62//44 140//44 139//44
f 22//45 100//45 99//45
f 49//46 127//46 126//46
f 20//47 98//47 97//47
f 70//48 148//48 147//48
f 78//49 156//49 155//49
f 28//50 106//50 105//50
f 66//51 144//51 143//51
f 40//6 118//6 117//6
f 42//52 120//52 119//52
f 30//53 108//53 107//53
f 19//54 97//54 96//54
f 55//55 133//55 132//55
f 44//56 122//56 121//56
f 54//57 132//57 131//57
f 25//58 103//58 102//58
f 15//59 93//59 92//59
f 59//60 137//60 136//60
f 45//61 123//61 122//61
f 27//62 105//62 104//62
f 32//63 110//63 109//63
f 77//43 155//43 154//43
f 37//64 115//64 114//64
f 69//65 147//65 146//65
f 47//66 125//66 124//66
f 24//67 102//67 101//67
f 2//68 80//68 79//68
f 14//69 92//69 91//69
f 64//70 142//70 141//70
f 50//71 128//71 127//71
f 39//72 117//72 116//72
f 5//73 83//73 82//73
f 68//74 146//74 145//74
f 56//75 134//75 133//75
f 13//76 91//76 90//76
f 6//77 84//77 83//77
f 58//78 136//78 135//78
v -10.000000 0.000000 10.000000
v 10.000000 0.000000 10.000000
v -10.000000 0.000000 -10.000000
v 10.000000 0.000000 -10.000000
vn 0.0000 1.0000 0.0000
usemtl TileWhite
s off
f 158//79 159//79 157//79
f 158//79 160//79 159//79
