# Blender v2.78 (sub 0) OBJ File: 'TileFour.blend'
# www.blender.org
mtllib TileFour.mtl
v 2.467155 0.000000 -6.744695
v 1.627154 0.000000 -6.744695
v -5.272846 0.000000 1.695305
v -5.272846 0.000000 2.595305
v 0.507154 0.000000 2.595305
v 0.507154 0.000000 7.075305
v 2.467155 0.000000 7.075305
v 2.467155 0.000000 2.595305
v 3.927155 0.000000 2.595305
v 3.927155 0.000000 0.835305
v 2.467155 0.000000 0.835305
v 0.467155 0.000000 -3.044695
v 0.507154 0.000000 -3.044695
v 0.507154 0.000000 0.835305
v -2.652845 0.000000 0.835305
v 2.467155 0.500000 -6.744695
v 1.627154 0.500000 -6.744695
v -5.272846 0.500000 1.695305
v -5.272846 0.500000 2.595305
v 0.507154 0.500000 2.595305
v 0.507154 0.500000 7.075305
v 2.467155 0.500000 7.075305
v 2.467155 0.500000 2.595305
v 3.927155 0.500000 2.595305
v 3.927155 0.500000 0.835305
v 2.467155 0.500000 0.835305
v 0.467155 0.500000 -3.044695
v 0.507154 0.500000 -3.044695
v 0.507154 0.500000 0.835305
v -2.652845 0.500000 0.835305
vn 0.0000 -1.0000 0.0000
vn 0.0000 0.0000 1.0000
vn 0.0000 1.0000 0.0000
vn 1.0000 0.0000 0.0000
vn 0.0000 0.0000 -1.0000
vn -0.7742 0.0000 -0.6329
vn -1.0000 0.0000 0.0000
vn 0.7793 0.0000 0.6267
usemtl NumberColour
s off
f 3//1 2//1 1//1
f 3//1 1//1 12//1
f 12//1 1//1 13//1
f 13//1 1//1 11//1
f 3//1 12//1 15//1
f 14//1 13//1 11//1
f 3//1 15//1 14//1
f 3//1 14//1 11//1
f 3//1 11//1 10//1
f 3//1 10//1 9//1
f 4//1 3//1 9//1
f 5//2 4//2 9//2
f 6//1 5//1 8//1
f 8//2 5//2 9//2
f 6//1 8//1 7//1
f 18//3 16//3 17//3
f 18//3 27//3 16//3
f 27//3 28//3 16//3
f 28//3 26//3 16//3
f 18//3 30//3 27//3
f 29//3 26//3 28//3
f 18//3 29//3 30//3
f 18//3 26//3 29//3
f 18//3 25//3 26//3
f 18//3 24//3 25//3
f 19//3 24//3 18//3
f 20//2 24//2 19//2
f 21//3 23//3 20//3
f 23//2 24//2 20//2
f 21//3 22//3 23//3
f 8//4 22//4 7//4
f 1//4 26//4 11//4
f 15//5 29//5 14//5
f 13//2 27//2 12//2
f 9//2 23//2 8//2
f 3//6 17//6 2//6
f 4//7 18//7 3//7
f 14//7 28//7 13//7
f 10//4 24//4 9//4
f 12//8 30//8 15//8
f 5//2 19//2 4//2
f 11//5 25//5 10//5
f 2//5 16//5 1//5
f 6//7 20//7 5//7
f 7//2 21//2 6//2
f 8//4 23//4 22//4
f 1//4 16//4 26//4
f 15//5 30//5 29//5
f 13//2 28//2 27//2
f 9//2 24//2 23//2
f 3//6 18//6 17//6
f 4//7 19//7 18//7
f 14//7 29//7 28//7
f 10//4 25//4 24//4
f 12//8 27//8 30//8
f 5//2 20//2 19//2
f 11//5 26//5 25//5
f 2//5 17//5 16//5
f 6//7 21//7 20//7
f 7//2 22//2 21//2
v -10.000000 0.000000 10.000000
v 10.000000 0.000000 10.000000
v -10.000000 0.000000 -10.000000
v 10.000000 0.000000 -10.000000
vn 0.0000 1.0000 0.0000
usemtl TileBlack
s off
f 32//9 33//9 31//9
f 32//9 34//9 33//9
