# Blender v2.78 (sub 0) OBJ File: 'TileSeven.blend'
# www.blender.org
mtllib TileSeven.mtl
v 4.661150 0.000000 -6.128671
v -4.158850 0.000000 -6.128671
v -4.158850 0.000000 -4.268670
v 1.741150 0.000000 -4.268670
v -3.258850 0.000000 6.931331
v -1.518850 0.000000 7.691330
v 4.661150 0.500000 -6.128671
v -4.158850 0.500000 -6.128671
v -4.158850 0.500000 -4.268670
v 1.741150 0.500000 -4.268670
v -3.258850 0.500000 6.931331
v -1.518850 0.500000 7.691330
vn 0.0000 -1.0000 0.0000
vn 0.0000 1.0000 0.0000
vn -0.4003 0.0000 0.9164
vn -0.9131 0.0000 -0.4077
vn 0.0000 0.0000 -1.0000
vn 0.9129 0.0000 0.4082
vn -1.0000 0.0000 0.0000
vn 0.0000 0.0000 1.0000
usemtl NumberColour
s off
f 3//1 2//1 1//1
f 3//1 1//1 4//1
f 4//1 1//1 6//1
f 5//1 4//1 6//1
f 9//2 7//2 8//2
f 9//2 10//2 7//2
f 10//2 12//2 7//2
f 11//2 12//2 10//2
f 6//3 11//3 5//3
f 5//4 10//4 4//4
f 2//5 7//5 1//5
f 1//6 12//6 6//6
f 3//7 8//7 2//7
f 4//8 9//8 3//8
f 6//3 12//3 11//3
f 5//4 11//4 10//4
f 2//5 8//5 7//5
f 1//6 7//6 12//6
f 3//7 9//7 8//7
f 4//8 10//8 9//8
v -10.000000 0.000000 10.000000
v 10.000000 0.000000 10.000000
v -10.000000 0.000000 -10.000000
v 10.000000 0.000000 -10.000000
vn 0.0000 1.0000 0.0000
usemtl TileWhite
s off
f 14//9 15//9 13//9
f 14//9 16//9 15//9
